<svg width="98" height="98" viewBox="0 0 98 98" fill="none" xmlns="http://www.w3.org/2000/svg">
<circle cx="49" cy="49" r="49" fill="#F29F8D"/>
<path d="M18.5903 94.0085C17.8351 93.5231 17.6194 92.8218 17.6733 91.9587V69.7886C17.6733 64.9877 20.6401 61.1039 25.2791 59.7554C28.192 58.8923 31.1049 57.9753 34.0178 57.0583C34.719 56.8425 34.8808 56.6267 34.2875 56.0873C31.4825 53.3363 29.4866 50.0997 28.5157 46.2698C28.4078 45.7844 28.192 45.5686 27.7065 45.4607C21.8808 43.8425 20.1547 37.2615 24.4161 32.9462C25.1173 32.2449 25.1173 32.137 24.2542 31.5976C22.5281 30.5727 20.9098 29.386 19.5613 27.8217C17.08 24.9088 17.026 21.1329 19.3995 18.1121C21.0177 16.0623 23.1215 14.7138 25.387 13.527C26.0343 13.2034 26.4119 12.8258 26.7895 12.1785C29.9182 6.29881 34.8269 3.22411 41.5157 3.06229C45.2916 2.9544 49.0676 3.00834 52.8975 3.06229C56.6195 3.11623 59.9639 4.30295 62.8767 6.62246C63.4701 7.10794 64.1174 7.43159 64.8726 7.59342C67.7855 8.18678 69.8892 9.85898 71.1838 12.5561C71.5075 13.2034 71.939 13.6349 72.5323 13.9586C74.9597 15.3071 77.1714 16.9254 78.5199 19.4607C79.9764 22.2656 79.5448 25.4482 77.4411 27.8217C76.0925 29.3321 74.5821 30.5727 72.8021 31.5437C71.939 32.0292 71.939 32.137 72.6402 32.8922C76.9017 37.2076 75.1755 43.7885 69.3498 45.4068C68.8643 45.5147 68.6485 45.7844 68.5406 46.2159C67.5697 50.0458 65.6278 53.3363 62.8228 56.0334C62.2294 56.6267 62.3373 56.8425 63.0925 57.0043C65.8975 57.8134 68.6485 58.7305 71.3996 59.5396C75.7689 60.8342 78.5739 63.5852 79.329 68.1703C79.383 68.6019 79.4369 69.0873 79.4369 69.5189V91.9048C79.4369 92.7679 79.2212 93.4691 78.5199 93.9546C58.4535 94.0085 38.4949 94.0085 18.5903 94.0085ZM48.3663 91.0957H64.8726C65.7896 91.0957 66.0593 90.826 66.0593 89.909C66.0054 85.5936 66.0593 81.2243 66.0593 76.9089C66.0593 72.5936 65.7896 75.0209 68.0552 74.967C68.7564 74.967 69.0261 75.1828 69.0261 75.938C68.9722 77.2326 69.0261 78.5811 69.0261 79.8757C69.0261 81.1703 69.2419 80.9006 69.9431 80.8467C71.7232 80.7927 73.5573 80.7927 75.3373 80.8467C76.0386 80.8467 76.3083 80.6309 76.3083 79.8757C76.3083 76.4774 76.3622 73.079 76.2544 69.6807C76.2004 66.4981 74.6361 64.0707 71.6693 62.9919C68.1091 61.6973 64.441 60.6724 60.8269 59.5396C60.3415 59.3778 60.1257 59.5396 60.1257 60.0251V61.7512C60.1257 67.1454 56.3497 71.8384 51.0634 73.133C45.8311 74.3736 40.3829 71.8384 37.9016 67.0915C36.7688 64.9338 36.4991 62.6143 36.607 60.2408C36.607 59.5396 36.3912 59.3778 35.7439 59.5935C32.2916 60.6724 28.7854 61.6433 25.3331 62.8301C22.7439 63.7471 20.9638 65.635 20.6401 68.44C20.2086 72.3239 20.5322 76.2077 20.4783 80.0915C20.4783 80.6849 20.8559 80.7388 21.3414 80.7388H26.8435C27.5987 80.7388 27.8144 80.4691 27.8144 79.7678C27.8144 78.5272 27.8144 77.2865 27.8144 75.9919C27.8144 75.1288 28.0841 74.7512 29.0011 74.8591H29.5406C30.3677 74.8591 30.7812 75.2907 30.7812 76.1537V89.8011C30.7812 90.7181 31.0509 90.9878 31.968 90.9878C37.524 91.0417 42.9182 91.0957 48.3663 91.0957ZM68.9722 22.8051V16.6557C68.9722 13.2034 66.8145 10.8299 63.3622 10.4523C62.7149 10.4523 62.2294 10.1826 61.7439 9.69716C60.2875 8.34861 58.5614 7.32371 56.6734 6.6764C55.5946 6.29881 54.4618 6.0291 53.329 6.0291C48.7439 6.0291 44.1589 5.70545 39.5738 6.19092C33.6941 6.78429 28.7314 11.8009 28.0841 17.6806C27.6526 21.6183 27.9762 25.5561 27.9223 29.4939C27.9223 29.8715 28.0302 30.1412 28.3538 30.303C29.163 30.6806 29.9182 30.8964 30.7812 30.5727C32.5074 29.9254 33.6402 28.3611 33.6941 26.4192V23.2905C33.6941 21.5644 34.5032 20.1619 35.7978 19.0831C38.0095 17.249 40.7066 17.1412 43.08 18.7594C45.1298 20.1619 47.3414 20.8632 49.8228 20.4316C51.2792 20.1619 52.5738 19.4607 53.8145 18.6515C55.8103 17.3569 57.9141 17.303 59.9639 18.4897C61.9597 19.6225 62.9846 21.4026 63.0386 23.6681V26.581C63.1464 28.6847 64.5489 30.357 66.5448 30.7345C67.8933 31.0043 68.8643 30.2491 68.8643 28.9005C68.9722 26.9047 68.9722 24.8549 68.9722 22.8051ZM57.2128 36.3445C58.0759 37.3155 58.2917 38.2864 57.7522 39.3113C57.1589 40.3902 55.8643 40.7678 54.8394 40.2823C53.7066 39.7968 53.1132 38.5561 53.5987 37.3694C53.9224 36.5063 53.5987 36.5603 53.0053 36.6142C52.1962 36.7221 51.441 36.7761 50.6319 36.7761C48.2045 36.7761 45.8311 36.8839 43.4037 36.6142C42.8642 36.6142 42.6485 36.6142 42.8642 37.3155C43.2958 38.5022 42.8642 39.5271 41.8933 40.1744C41.0302 40.7138 39.8974 40.552 39.1422 39.7968C38.2792 38.9337 38.1713 37.9088 38.9265 36.83C39.1962 36.3985 39.1962 36.2366 38.7107 36.1827C36.3373 35.8051 33.9638 35.3196 31.6443 34.6723C31.2667 34.5644 30.997 34.6723 30.997 35.1038C30.997 38.1785 30.7273 41.1993 31.2667 44.274C32.885 53.552 41.5157 59.8093 50.4701 58.6765C57.5365 57.8134 62.3373 53.9296 65.0344 47.4026C66.6527 43.4109 66.1133 39.2034 66.1672 35.1038C66.1672 34.5644 65.7896 34.6184 65.466 34.7263C62.7149 35.4275 60.0717 35.913 57.2128 36.3445ZM48.9597 33.9171C50.0385 34.025 51.6028 33.7553 53.2211 33.7014C56.134 33.5395 59.0468 33.108 61.9058 32.4607C62.661 32.2989 62.661 32.0831 62.1755 31.5437C60.8269 30.1412 60.1796 28.415 60.1796 26.4731V23.83C60.0717 21.3486 57.7522 20.0001 55.5406 21.2407C55.1091 21.4565 54.7315 21.7802 54.2999 22.0499C52.0344 23.4524 49.5531 23.9378 46.9099 23.5603C45.0219 23.2905 43.3497 22.5893 41.7854 21.5105C40.7066 20.7553 39.5738 20.4856 38.3331 21.1329C37.1464 21.7802 36.7149 22.859 36.7149 24.2076V26.6889C36.7149 28.5229 36.0675 30.0872 34.8808 31.4358C34.3774 32.0112 34.5032 32.3708 35.2584 32.5146C39.6277 33.4856 44.051 33.8092 48.9597 33.9171ZM39.6817 61.3736C39.6817 68.1164 45.9929 72.4317 52.0344 69.7346C55.7564 68.0624 57.3207 64.9338 57.2668 60.9421C57.2668 60.1869 56.9251 59.9531 56.2419 60.2408C51.2253 62.2906 46.1547 62.3446 41.0842 60.4027C40.1492 60.0071 39.6817 60.3307 39.6817 61.3736ZM24.2003 91.0957H27.0592C27.6526 91.0957 27.9762 90.8799 27.9762 90.2326V84.5687C27.9762 83.9753 27.7065 83.7596 27.1132 83.7596H21.4493C20.8559 83.7596 20.6401 84.0293 20.6401 84.6226V90.2865C20.6401 90.8799 20.9098 91.0957 21.5032 91.0957C22.3663 91.0957 23.2833 91.0957 24.2003 91.0957ZM69.0261 87.4276V90.2865C69.0261 90.8799 69.2419 91.0957 69.8353 91.0957H75.4992C76.0925 91.0957 76.3083 90.8799 76.3083 90.2865V84.6226C76.3083 84.0293 76.0925 83.8135 75.4992 83.8135H69.8353C69.2419 83.8135 69.0261 84.0293 69.0261 84.6226V87.4276ZM25.0634 17.249C23.4991 17.8963 21.8269 19.5685 21.1256 20.9171C20.3165 22.5893 20.5322 24.0997 21.5571 25.5561C22.2584 26.5271 23.1215 27.3362 24.0924 28.0374C24.3082 28.1993 24.524 28.469 24.7937 28.3072C25.0634 28.1453 24.9555 27.8217 24.9555 27.552C24.9555 24.1536 24.9555 20.7013 25.0634 17.249ZM71.939 22.8051V27.6598C71.939 27.8756 71.8311 28.1993 72.1008 28.3611C72.3705 28.5229 72.5863 28.2532 72.8021 28.0914C73.3415 27.6598 73.9348 27.2283 74.4203 26.7428C76.7938 24.3694 76.9017 22.0499 74.744 19.4607C74.1506 18.7594 73.3954 18.22 72.6942 17.6806C72.1548 17.303 71.939 17.4109 71.9929 18.0582C71.9929 19.6225 71.939 21.1868 71.939 22.8051ZM27.9223 38.3404V34.942C27.9223 34.3487 27.7065 34.2408 27.2211 34.5105C25.8186 35.3736 25.0634 36.6142 25.0634 38.2325C25.0634 39.8507 25.7646 41.0914 27.1671 41.9545C27.7065 42.2781 27.9223 42.1703 27.9223 41.523V38.3404ZM69.0261 38.1785V41.469C69.0261 42.1163 69.188 42.3321 69.8353 41.9545C71.1838 41.0914 71.939 39.9047 71.939 38.3404C71.939 36.7761 71.2377 35.4814 69.8353 34.6184C69.188 34.2408 69.0261 34.4565 69.0261 35.1038V38.1785Z" fill="#283959"/>
<path d="M93.9473 8.94193C93.2461 8.94193 92.5448 8.94193 91.8436 8.94193C91.2502 8.94193 90.9805 9.15769 91.0345 9.75106V9.91288C90.9805 12.0166 90.8726 12.0706 88.7689 11.8548C88.2834 11.8548 88.1216 11.5851 88.0677 11.0996C88.0137 10.3984 88.3913 9.58923 87.8519 9.10375C87.3664 8.67222 86.5573 8.99587 85.91 8.94193C85.4245 8.94193 85.1548 8.72616 85.1548 8.24068V8.1328C85.1548 5.48964 85.0469 5.97511 87.0967 5.97511C89.1465 5.97511 88.1216 5.7054 88.1216 4.95022C88.1216 2.90042 87.6901 3.0083 90.1714 3.0083C92.6527 3.0083 91.0345 3.22407 91.0884 3.87138C91.1603 5.27387 91.8796 5.97511 93.2461 5.97511H94.0013C93.9473 7.00001 93.9473 7.97097 93.9473 8.94193Z" fill="#8EA3BF"/>
<path d="M7.42432 3.06201C8.39528 3.06201 8.88076 3.54749 8.88076 4.51845C8.88076 5.4894 9.36624 5.97488 10.3372 5.97488C10.8227 5.97488 11.5239 5.70517 11.7397 6.29853C11.9555 7.05372 11.9555 7.86285 11.7397 8.61804C11.6318 8.99563 11.1463 8.88775 10.8227 8.88775C8.77288 8.88775 8.88076 8.67198 8.9347 10.7218C8.9347 11.5849 8.66499 11.9085 7.80192 11.8006H7.53221C6.48933 11.8006 5.96789 11.2612 5.96789 10.1824C5.96789 9.31929 5.53635 8.86977 4.67328 8.83381H3.86415C3.27079 8.83381 3.00108 8.61804 3.00108 8.07862V7.70103C3.00108 5.65123 2.89319 5.81306 4.83511 5.867C5.75212 5.867 6.07577 5.54334 5.96789 4.68027V4.41056C5.93193 3.51153 6.41741 3.06201 7.42432 3.06201Z" fill="#8EA3BF"/>
<path d="M19.2916 11.9085C18.2128 11.9085 17.6734 11.387 17.6734 10.3442C17.6734 9.30129 17.2239 8.85177 16.3248 8.99562H15.2999C14.9763 8.99562 14.7605 8.83379 14.7605 8.51014V6.56823C14.7605 6.13669 15.1381 6.08275 15.5157 6.02881C16.2169 5.92092 17.0261 6.35246 17.5115 5.7591C17.9431 5.27362 17.6194 4.46449 17.6734 3.81718C17.6734 3.33171 17.8891 3.062 18.4286 3.11594H18.6983C20.9638 3.11594 20.6402 3.00805 20.6402 5.00391C20.6402 6.99976 20.9099 6.08275 21.719 6.08275C23.6609 6.08275 23.9846 6.56823 23.607 8.4562C23.4991 8.88773 23.2833 8.99562 22.9057 8.99562C22.2045 8.99562 21.3954 8.67197 20.8559 9.21139C20.3165 9.75081 20.6941 10.506 20.6941 11.1533C20.5862 12.2321 19.7232 11.8006 19.2916 11.9085Z" fill="#8EA3BF"/>
<path d="M77.8725 3.06201C78.8435 3.06201 79.3289 3.56547 79.3289 4.57239C79.3289 6.02882 79.3289 5.97488 80.7854 6.02882C81.2708 6.02882 81.9721 5.75911 82.1339 6.40642C82.3497 7.16161 82.3497 7.97074 82.08 8.77987C82.026 9.04958 81.6484 8.99563 81.4327 8.99563H81.0011C79.1671 8.99563 79.3289 8.83381 79.3289 10.6678C79.3289 12.5019 79.3289 11.9085 78.0343 11.9085H77.387C76.6318 11.9085 76.3621 11.6927 76.3621 10.9375C76.3621 9.04958 76.3082 9.04958 74.4202 8.99563C73.719 8.99563 73.3953 8.72592 73.4493 8.02468V7.91679C73.4493 5.75911 73.3414 5.97488 75.2833 6.02882C76.0924 6.02882 76.524 5.81305 76.3621 4.94998V4.57239C76.3621 3.56547 76.8656 3.06201 77.8725 3.06201Z" fill="#8EA3BF"/>
<path d="M14.7605 22.1038C14.7605 23.1107 14.275 23.6142 13.3041 23.6142C11.8476 23.6142 11.9016 23.6142 11.8476 25.0706C11.8476 25.5561 12.1174 26.2573 11.4701 26.4731C10.7149 26.6889 9.90573 26.6349 9.0966 26.4731C8.98872 26.4731 8.93478 26.2573 8.88084 26.0955C8.88084 25.8797 8.88084 25.664 8.88084 25.4482C8.88084 23.5063 9.04266 23.6142 7.10075 23.6681C6.18374 23.6681 5.80614 23.3445 5.91403 22.4275V22.2656C5.91403 21.2228 6.45345 20.7013 7.53229 20.7013C8.61113 20.7013 9.04266 20.2698 8.82689 19.4067V18.3818C8.82689 18.1121 8.93478 17.8424 9.20449 17.8424C9.95968 17.7345 10.6609 17.7345 11.4161 17.8424C11.7937 17.8424 11.7937 18.2739 11.7937 18.5976C11.9555 20.5934 11.9555 20.6474 13.8974 20.7013C15.1921 20.7553 14.6526 21.6183 14.8145 22.1577L14.7605 22.1038Z" fill="#8EA3BF"/>
<path d="M86.5572 26.581C85.6222 26.581 85.1547 26.1135 85.1547 25.1785C85.1547 24.2435 84.6333 23.7221 83.5904 23.6142C83.1589 23.6142 82.4576 23.8839 82.2958 23.2366C82.08 22.4814 82.134 21.6723 82.3497 20.8632C82.4037 20.7013 82.6195 20.6474 82.8352 20.6474H83.4825C85.3166 20.6474 85.1547 20.7553 85.1547 18.9752C85.1547 17.1951 85.1547 17.7345 86.3415 17.7345H87.1506C87.7979 17.7345 88.0676 17.9503 88.0676 18.6515C88.1036 19.9462 88.7868 20.6294 90.1174 20.7013C90.7647 20.7013 90.9805 20.9711 90.9805 21.5644C90.9805 24.0457 91.0884 23.6682 89.0386 23.6682C86.9888 23.6682 87.9597 23.9379 88.0137 24.693V25.0706C88.0137 26.0776 87.5282 26.581 86.5572 26.581Z" fill="#8EA3BF"/>
<path d="M48.6361 53.8757H44.051C41.6236 53.8757 39.8435 52.1496 39.8435 49.8301C39.8435 47.5106 41.5696 45.7844 43.997 45.7844H53.329C55.7025 45.7844 57.4286 47.5106 57.4286 49.8301C57.4286 52.1496 55.7025 53.8757 53.329 53.8757H48.6361ZM48.7979 48.3736H44.3207C43.1879 48.3736 42.4867 48.967 42.4867 49.884C42.4867 50.7471 43.1879 51.2865 44.3207 51.2865H53.0054C54.1381 51.2865 54.8933 50.6931 54.8933 49.8301C54.8933 48.967 54.1921 48.3736 53.0054 48.3736C51.6029 48.3736 50.2004 48.3736 48.7979 48.3736Z" fill="#283959"/>
</svg>
