<?xml version="1.0" encoding="utf-8"?>
<!-- Generator: Adobe Illustrator 27.2.0, SVG Export Plug-In . SVG Version: 6.00 Build 0)  -->
<svg version="1.1" id="Camada_1" xmlns="http://www.w3.org/2000/svg" xmlns:xlink="http://www.w3.org/1999/xlink" x="0px" y="0px"
	 viewBox="0 0 200 200" style="enable-background:new 0 0 200 200;" xml:space="preserve">
<style type="text/css">
	.st0{fill:#F29F8D;}
</style>
<g>
	<path class="st0" d="M100.4,189c-28.4,0-56.8,0-85.3,0c-2.6,0-2.5,0-2.6-2.6c-0.1-5.6,1.5-10.6,4.8-15c0.7-0.9,0.8-1.9,0.8-3
		c0-11.9,0-24,0-35.9c0-9,3.5-16.2,10.2-22c1-0.9,1.1-1.8,1.1-3c0-19.2,0-38.4,0-57.5c0-2.8,0-2.8,2.8-2.8c13.5,0,26.9,0,40.4,0
		c1.7,0,2.3-0.5,2.2-2.2c-0.1-6.2,0-12.3-0.1-18.4c0-1.5,0.5-2.2,2.1-2.2c2.5,0.1,5.1,0,7.6,0.1c1.2,0,1.8-0.4,1.6-1.6
		c0-0.1,0-0.1,0-0.2c0.1-4.1,0.7-4.6,4.9-3.9c0.7,0.1,1,0.5,1,1.2c0,0.5,0,0.8,0,1.3c0,3.6-0.5,3.2,3.3,3.3c1.6,0.1,2.2-0.5,2.1-2.1
		c-0.1-2.5,0-5.1-0.1-7.6c0-1.2,0.4-1.7,1.6-1.6c5.2,0.1,4.2-0.5,4.3,4.2c0,1.9,0,3.9,0,5.9c0,1,0.4,1.4,1.4,1.4c0.1,0,0.3,0,0.4,0
		c4.4,0,3.7,0.5,3.7-3.6c0-1.6,0.5-2.2,2.2-2.1c4.4,0.1,3.8-0.5,3.8,3.7c0,1.6,0.5,2.1,2.1,2c2.4-0.1,5,0,7.4-0.1
		c1.4-0.1,1.9,0.5,1.9,1.9c-0.1,6.2,0,12.5-0.1,18.7c0,1.5,0.5,2,2,2c13.7-0.1,27.2,0,40.9,0c2.4,0,2.4,0,2.4,2.4
		c0,19.2,0,38.4,0,57.5c0,1.6,0.5,2.6,1.6,3.8c6.2,5.6,9.7,12.7,9.7,21.2c0,7.6,0,15.2,0,22.8c0,3.7-1.3,7-3.8,9.6
		c-0.9,0.9-0.8,1.4,0.2,2.2c6.3,5.2,9.4,11.8,9.3,19.9c0,2.4,0,2.4-2.4,2.4C157.3,189,128.8,189,100.4,189z M128.2,120.2
		c1.1-1.7,1.9-3.3,3-4.7c7.7-10.3,20.4-14.2,32.6-10c1,0.4,1.6,0.5,1.6-0.9c0-16.7,0-33.2,0-49.9c0-1.2-0.5-1.5-1.5-1.5
		c-15.8,0-31.7,0-47.6,0c-1.3,0-1.6,0.5-1.6,1.6c0.1,2.8,0,5.5,0,8.3c0,13.5,0,26.9,0,40.4c0,0.9-0.2,1.7,0.9,2.3
		C121.9,108.5,126,113.4,128.2,120.2z M72.5,120c0.5-2.4,2.3-4.1,2.3-6.5c0-19.5,0-38.9,0-58.4c0-1.5-0.4-2.1-2-2
		c-11.8,0.1-23.6,0.1-35.4,0c-1.6,0-2.1,0.5-2.1,2.1c0.1,16.3,0,32.6,0,48.8c0,2,0,1.9,2,1.3c9.2-2.9,17.8-1.7,25.8,3.8
		C67.2,111.9,70.2,115.7,72.5,120z M80.7,74.9c0,10.5,0,21,0,31.5c0,0.5-0.2,1,0.3,1.4c0.5,0.3,0.8-0.3,1.2-0.5
		c3.6-2.2,7.6-3.4,11.9-3.4c4.3,0.1,8.5-0.1,12.8,0.1c1.5,0,2-0.5,2-2c-0.1-6.5,0-12.9,0-19.5c0-11,0-22.1,0-33
		c0-1.4,0.2-2.3,1.9-2.2c2.1,0.1,4.2,0,6.2,0c3.7,0,3.2,0.5,3.3-3.3c0.1-1.6-0.5-2.1-2.1-2.1c-11.8,0.1-23.4,0.1-35.2,0
		c-1.7,0-2.2,0.5-2.2,2.2C80.7,54.3,80.7,64.6,80.7,74.9z M24.1,146.5c0,6.3,0,11.6,0,16.8c0,0.5-0.5,1.9,0.9,1.1
		c2.9-1.6,6-2.4,9.1-3.2c1-0.3,1.5-0.7,1.8-1.7c0.3-1.1-0.5-1.4-1.1-2c-3.6-3-5.5-6.8-5.4-11.6c0.1-5.7,0-11.3,0-17
		c0-4.5,3.7-8.1,8.2-8.2c3.3-0.1,5.6,1.4,7.5,3.9c1.9,2.5,4.3,4.1,7.5,4.4c2.9,0.4,5.8,0.2,8.7,0.1c1.7,0,2.4,0.5,2.4,2.3
		c-0.1,4.8-0.1,9.7,0,14.5c0.1,4.8-1.8,8.6-5.4,11.6c-0.6,0.5-1.4,0.9-1.1,2c0.3,1.1,1,1.4,2,1.7c2.8,0.6,5.6,1.4,8.1,2.7
		c1.7,0.9,1.7,0.9,1.7-1c0-10,0-19.9,0-29.9c0-1.8-0.2-3.6-0.5-5.4c-2-10.3-12.4-19.1-24.7-17.6c-10,1.2-18.5,9.6-19.5,19.5
		C23.7,135.5,24.3,141.6,24.1,146.5z M131.6,142.2c0,4.3,0,7.7,0,11c0,1.2,0.1,2.4,0.4,3.5c0.8,4.1,3.8,6,7.8,5
		c0.7-0.2,1.4-0.4,2.1-0.5c1-0.2,1.4-0.7,1.7-1.7c0.3-1-0.5-1.4-1-1.8c-3.6-3-5.5-6.8-5.5-11.6c0.1-4.9,0.1-9.8,0-14.7
		c0-1.5,0.4-2.2,2.1-2.2c2.9,0.1,5.8-0.5,8.2-2.4c2.4-1.8,4.4-3.8,4-7.3c-0.2-1,0-2.1,0-3.2c0-0.9,0.4-1.2,1.3-1.3
		c4.6-0.5,4.6-0.5,4.6,4.2c0,0.5,0.1,1.1,0,1.6c-0.2,1.5,0.5,2.7,1.4,3.8c2.8,3.3,6.5,4.6,10.7,4.6c1.6,0,2.1,0.5,2.1,2.2
		c-0.1,4.8-0.1,9.7,0,14.5c0.1,4.9-1.9,8.8-5.6,11.9c-0.5,0.5-1.1,0.8-0.9,1.7c0.2,0.9,0.5,1.5,1.5,1.7c1,0.3,2.1,0.4,3.1,0.8
		c2.2,0.9,3.6,0,5-1.5c1.7-1.9,2.3-4.3,2.3-6.7c0-7.1,0-14,0-21.1c0-1.6-0.2-3.3-0.5-4.9c-2-10.8-12.6-19.3-24.6-17.8
		c-10.1,1.2-18.6,9.5-19.6,19.5C131.4,134,131.8,138.5,131.6,142.2z M100.3,183.1c2,0,4,0,6,0c6.7,0,13.5,0,20.2,0
		c1.4,0,1.8-0.4,1.4-1.7c-0.5-1.4-0.9-2.9-1.7-4.3c-3-5.4-7.7-8.4-13.7-9.8c-1.8-0.5-2.9-0.2-4,1.4c-2.3,3.3-4.7,6.3-7.1,9.5
		c-0.8,1.2-1.4,1.2-2.3,0c-1.8-2.5-3.7-5-5.6-7.5c-3.1-4.1-3.1-4.2-8-2.6c-6.4,2-10.7,6.3-12.7,12.8c-0.6,2.1-0.5,2.2,1.6,2.2
		C83.2,183.1,91.7,183.1,100.3,183.1z M100.8,109.7c-2.4,0-4.3,0-6.2,0c-3.7,0.1-7.2,0.9-10.1,3.2c-4.3,3.2-6.4,7.6-6.7,12.9
		c0,0.8-0.1,2.1,1.4,1.4c2.1-0.8,4.2-0.7,6.2-0.7c5.2,0,9.8-1.6,13.3-5.5c1.1-1.2,1.8-1.2,3,0c3,3.2,6.6,5,11,5.3
		c2.7,0.3,5.6-0.4,8.2,0.8c1.4,0.6,1.8-0.1,1.8-1.4c0-8-6.2-14.8-14.2-15.7C105.9,109.6,103.1,109.9,100.8,109.7z M42.3,183.1
		c7.3,0,14.8,0,22.1,0c1.4,0,2.1-0.5,2.3-1.9c0.3-2.3,1.1-4.3,2.2-6.3c0.7-1.3,0.4-2-0.6-2.9c-2.8-2.4-6.2-3.9-9.8-4.6
		c-1-0.2-1.3,0.3-1.7,1.1c-1.4,3-3.9,5.1-7.1,6c-5.3,1.5-10.8-0.8-13.4-5.9c-0.4-0.6-0.5-1.4-1.6-1.2c-7.3,1-13.8,6.7-15.7,13.8
		c-0.4,1.5-0.1,2,1.5,1.9C27.8,183,35,183.1,42.3,183.1z M111.5,140.1L111.5,140.1c0-2.1,0-4.2,0-6.2c0-1.1-0.4-1.6-1.4-1.8
		c-3.2-0.5-6.1-1.7-8.8-3.5c-0.7-0.5-1.4-0.5-2.1,0c-2.6,1.8-5.6,3-8.8,3.5c-0.9,0.2-1.4,0.6-1.4,1.6c0.1,4.2-0.1,8.3,0.1,12.6
		c0.2,4.6,2.9,7.6,7.4,8.3c2.4,0.4,5,0.4,7.4,0c4.7-0.6,7.4-3.8,7.6-8.5C111.6,144.1,111.5,142.1,111.5,140.1z M35.4,138.1
		c0,2.6,0,5.2,0,7.8c0.1,4.9,2.9,8.1,7.7,8.8c2.3,0.3,4.6,0.3,6.9,0c4.8-0.5,7.7-3.8,7.8-8.7c0.1-2.6,0-5.3,0-8c0-2.8,0-2.9-2.8-2.7
		c-6.1,0.3-11-2-14.6-6.8c-0.8-1.1-1.8-1.9-3.3-1.4c-1.4,0.5-1.8,1.8-1.8,3.2C35.4,132.8,35.4,135.5,35.4,138.1z M142.9,141.2
		c0,1.6,0,3.2,0,4.8c0.2,4.8,2.9,8,7.6,8.7c2.4,0.4,4.8,0.4,7.2,0c4.3-0.6,7-3.2,7.4-7.5c0.4-3.7,0.1-7.4,0.2-11.1
		c0-0.7-0.4-1-1.1-1.2c-3.5-0.8-6.6-2.4-9.2-5c-0.7-0.7-1.3-0.6-1.9,0.1c-2.5,2.4-5.6,4.1-9.1,4.9c-0.8,0.2-1.2,0.6-1.2,1.4
		C142.9,137.9,142.9,139.6,142.9,141.2z M100.3,30.5c-5.4,0-10.9,0-16.3,0c-3.8,0-3.3-0.5-3.4,3.3c-0.1,1.6,0.5,2.1,2.1,2.1
		c11.2-0.1,22.4,0,33.8,0c4.1,0,3.4,0.6,3.6-3.5c0-1.4-0.5-1.9-1.9-1.9C112.3,30.5,106.3,30.5,100.3,30.5z M171.3,183.1
		c3,0,6-0.1,9,0c1.4,0,1.9-0.4,1.4-1.8c-2.2-7.5-7.2-11.9-14.8-13.7c-1.1-0.3-1.4,0.1-1.4,1.1c-0.5,4.7-1.9,9.1-4.3,13.1
		c-0.7,1.2-0.2,1.3,0.8,1.3C165.1,183.1,168.2,183.1,171.3,183.1z M125.7,145.9c-2.4,2.1-4.9,3.4-7.9,3.5c-0.7,0-0.8,0.6-0.9,1.2
		c-0.9,3-2.7,5.5-5.2,7.3c-0.8,0.6-0.7,1.2-0.5,2c0.3,1.3,1.4,1.4,2.4,1.5c4.7,1,9.1,2.8,12.8,6.2c0.8,0.7,1.4,0.7,2.1,0
		c0.4-0.4,0.8-0.7,1.3-1c0.8-0.5,1-1,0.2-1.7c-2.8-2.9-4.2-6.3-4-10.4C125.8,151.7,125.7,149,125.7,145.9z M75.1,146
		c0,7.1,0,13.9,0,20.8c1.1-0.7,1.9-1.3,2.8-1.9c3-2,6.4-2.9,9.9-3.7c0.9-0.2,1.5-0.6,1.8-1.6c0.3-1.1-0.3-1.4-1-2
		c-2.4-1.8-4-4.2-4.9-7c-0.2-0.6-0.4-1.3-1.2-1.3C79.9,149.2,77.5,148,75.1,146z M140.9,183.1c1.8,0,3.6,0,5.4,0
		c0.8,0,1.4-0.1,0.7-1.1c-2.4-4.2-3.9-8.7-4.4-13.5c-0.1-0.9-0.5-1.2-1.4-1c-3.5,0.8-6.6,2.4-9.3,4.8c-0.7,0.6-1,1.3-0.5,2.2
		c1.3,2.3,2.1,4.7,2.5,7.3c0.2,1,0.7,1.4,1.7,1.4C137.5,183.1,139.2,183.1,140.9,183.1z M51.9,163.7c0-2.5-0.5-3.1-3.1-3.1
		c-1.8,0-3.6,0-5.4,0c-0.6,0-1.3,0-1.6,0.7c-0.8,1.8-0.5,4.1,0.9,5.6c1.6,1.7,3.8,2.3,6,1.4C50.5,167.7,51.9,165.7,51.9,163.7z
		 M154.2,166.1c0.9,0,1.9,0,2.8,0c3,0,3.1-0.2,2.4-3.2c-0.1-0.4-0.2-0.8-0.3-1.2c-0.2-0.7-0.5-1.1-1.4-1.1c-2.4,0-4.8,0-7.2,0
		c-0.5,0-1,0.2-1.2,0.8c-0.3,1.1-0.6,2.2-0.7,3.3c0,1,0.4,1.4,1.4,1.4C151.4,166.1,152.8,166.1,154.2,166.1z M100.5,160.7
		c-0.5,0-1.1,0-1.6,0s-1.2,0-1.7,0c-1.7,0.1-2.4,1.4-1.4,2.7c1.3,1.8,2.6,3.5,3.9,5.2c0.5,0.6,1,0.7,1.5,0.1c1.4-1.8,2.7-3.5,4-5.3
		c0.9-1.3,0.1-2.5-1.4-2.6C102.6,160.7,101.6,160.7,100.5,160.7z M154.2,172.1c-1.1,0-2.1,0-3.2,0s-1.4,0.4-1,1.4
		c0.8,2.4,2,4.8,3.4,7c0.5,0.7,0.9,1,1.5,0.1c1.5-2.2,2.7-4.5,3.5-7.1c0.3-0.9,0.1-1.4-0.9-1.4C156.3,172.1,155.2,172.1,154.2,172.1
		z M83.3,137.8c0-1.4,0-2.8,0-4.3c0-0.8-0.3-1.2-1.2-1c-2.2,0.4-4.2,2.8-4.3,5.2c0,2.4,2,4.9,4.2,5.3c0.8,0.2,1.3,0,1.2-0.9
		C83.2,140.8,83.3,139.3,83.3,137.8z M117.5,137.9c0,1.4,0,2.8,0,4.3c0,1,0.3,1.3,1.3,1c2.1-0.5,4.1-2.9,4.2-5.2
		c0.1-2.4-1.9-4.9-4.1-5.3c-1-0.2-1.3,0.1-1.3,1C117.5,135.1,117.5,136.5,117.5,137.9z"/>
	<path class="st0" d="M159.9,72.9c0,2.9,0,2.9-3,2.9c-3.3,0-2.9,0.3-2.9-3.2c0-2.7,0-2.7,3.2-2.7C159.9,69.9,159.9,69.9,159.9,72.9z
		"/>
	<path class="st0" d="M123,69.9c2.9,0,2.9,0,2.9,3c0,3,0,3-3.2,2.9c-2.8,0-2.8,0-2.8-3.2C120,69.9,120,69.9,123,69.9z"/>
	<path class="st0" d="M134.2,87.1c-2.9,0-2.9,0-2.9-3.1c0-3.2-0.3-2.8,3.3-2.9c2.7,0,2.7,0,2.7,3.3
		C137.3,87.1,137.3,87.1,134.2,87.1z"/>
	<path class="st0" d="M145.7,81.2c2.9,0,2.9,0,2.9,3c0,3.3,0.2,2.9-3.2,2.9c-2.7,0-2.7,0-2.7-3.2C142.8,81.2,142.8,81.2,145.7,81.2z
		"/>
	<path class="st0" d="M157.1,87.1c-3.3,0-3.1,0.3-3.1-3c0-2.9,0-2.9,3-2.9c2.9,0,2.9,0,2.9,3C159.9,87.1,159.9,87.1,157.1,87.1z"/>
	<path class="st0" d="M123.1,98.4c-3.3,0-3.1,0.3-3.1-3c0-2.9,0-2.9,3-2.9c2.9,0,2.9,0,2.9,3C126,98.4,126,98.4,123.1,98.4z"/>
	<path class="st0" d="M137.3,95.6c0,2.9,0,2.9-3.1,2.9c-3.2,0-2.8,0.3-2.9-3.3c0-2.7,0-2.7,3.3-2.7
		C137.3,92.5,137.3,92.5,137.3,95.6z"/>
	<path class="st0" d="M145.6,98.4c-3,0-3,0-3-3c0-3,0-3,3-3c3,0,3,0,3,3.2C148.6,98.4,148.6,98.4,145.6,98.4z"/>
	<path class="st0" d="M157.1,92.5c2.9,0,2.9,0,2.9,3.1c0,3.2,0.3,2.8-3.3,2.9c-2.7,0-2.7,0-2.7-3.2
		C154.1,92.5,154.1,92.5,157.1,92.5z"/>
	<path class="st0" d="M159.9,61.4c0,3.3,0.3,3.1-3,3.1c-2.9,0-2.9,0-2.9-3c0-2.9,0-2.9,3-2.9C159.9,58.6,159.9,58.6,159.9,61.4z"/>
	<path class="st0" d="M148.6,61.5c0,3,0,3-3,3c-3,0-3,0-3-3s0-3,3.2-3C148.6,58.6,148.6,58.6,148.6,61.5z"/>
	<path class="st0" d="M148.6,73c0,2.8,0,2.8-3.2,2.8c-2.8,0-2.8,0-2.8-3.2c0-2.8,0-2.8,3.2-2.8C148.6,69.9,148.6,69.9,148.6,73z"/>
	<path class="st0" d="M134.4,75.8c-3.3,0-3.1,0.3-3.1-3c0-2.9,0-2.9,3-2.9c2.9,0,2.9,0,2.9,3C137.3,75.8,137.3,75.8,134.4,75.8z"/>
	<path class="st0" d="M137.3,61.5c0,2.9,0,2.9-3,2.9c-3.3,0-2.9,0.2-2.9-3.2c0-2.7,0-2.7,3.2-2.7C137.3,58.6,137.3,58.6,137.3,61.5z
		"/>
	<path class="st0" d="M126,61.4c0,3.3,0.3,3.1-3,3.1c-2.9,0-2.9,0-2.9-3c0-2.9,0-2.9,3-2.9C126,58.6,126,58.6,126,61.4z"/>
	<path class="st0" d="M123.2,87.1c-3.1,0-3.1,0-3.1-3c0-2.9,0-2.9,3-2.9c2.9,0,2.9,0,2.9,3C126,87.1,126,87.1,123.2,87.1z"/>
	<path class="st0" d="M43.7,81.2c2.9,0,2.9,0,2.9,3c0,3,0,3-3.2,2.9c-2.8,0-2.8,0-2.8-3.2C40.8,81.2,40.8,81.2,43.7,81.2z"/>
	<path class="st0" d="M58,84.2c0,2.9,0,2.9-3,2.9c-2.9,0-2.9,0-2.9-3.2c0-2.7,0-2.7,3-2.7C58,81.2,58,81.2,58,84.2z"/>
	<path class="st0" d="M69.4,84.3c0,2.8,0,2.8-3.1,2.8c-2.8,0-2.8,0-2.8-3.3c0-2.6,0-2.6,3.3-2.6C69.4,81.2,69.4,81.2,69.4,84.3z"/>
	<path class="st0" d="M43.6,98.4c-2.8,0-2.8,0-2.8-3.1c0-2.8,0-2.8,3.1-2.8c2.8,0,2.8,0,2.8,3.3C46.7,98.4,46.7,98.4,43.6,98.4z"/>
	<path class="st0" d="M58,95.5c0,2.9,0,2.9-3,2.9c-3.3,0-2.9,0.2-2.9-3.2c0-2.7,0-2.7,3.2-2.7C58,92.5,58,92.5,58,95.5z"/>
	<path class="st0" d="M66.3,98.4c-2.9,0-2.9,0-2.9-3.1c0-3.2-0.3-2.8,3.3-2.9c2.7,0,2.7,0,2.7,3.3C69.4,98.4,69.4,98.4,66.3,98.4z"
		/>
	<path class="st0" d="M66.3,75.8c-2.8,0-2.8,0-2.8-3.1c0-2.8,0-2.8,3.1-2.8c2.8,0,2.8,0,2.8,3.1C69.4,75.8,69.4,75.8,66.3,75.8z"/>
	<path class="st0" d="M55,75.8c-2.8,0-2.8,0-2.8-3.1c0-2.8,0-2.8,3.1-2.8c2.8,0,2.8,0,2.8,3.3C58,75.8,58,75.8,55,75.8z"/>
	<path class="st0" d="M43.6,75.8c-2.9,0-2.9,0-2.9-3c0-3.3-0.2-2.9,3.2-2.9c2.7,0,2.7,0,2.7,3.2C46.7,75.8,46.7,75.8,43.6,75.8z"/>
	<path class="st0" d="M66.3,64.4c-2.8,0-2.8,0-2.8-3.1c0-2.8,0-2.8,3.1-2.8c2.8,0,2.8,0,2.8,3.1C69.4,64.4,69.4,64.4,66.3,64.4z"/>
	<path class="st0" d="M58,61.5c0,2.9,0,2.9-3,2.9c-3.3,0-2.9,0.2-2.9-3.2c0-2.7,0-2.7,3.2-2.7C58,58.6,58,58.6,58,61.5z"/>
	<path class="st0" d="M46.7,61.6c0,2.8,0,2.8-3.2,2.8c-2.8,0-2.8,0-2.8-3.2c0-2.8,0-2.8,3.2-2.8C46.7,58.6,46.7,58.6,46.7,61.6z"/>
	<path class="st0" d="M89.1,81.2c2.9,0,2.9,0,2.9,3c0,3.3,0.3,2.9-3.2,2.9c-2.7,0-2.7,0-2.7-3.2C86.1,81.2,86.1,81.2,89.1,81.2z"/>
	<path class="st0" d="M103.3,84.2c0,2.9,0,2.9-3,2.9c-2.9,0-2.9,0-2.9-3.2c0-2.7,0-2.7,3-2.7C103.3,81.2,103.3,81.2,103.3,84.2z"/>
	<path class="st0" d="M92,95.3c0,3.3,0.3,3.1-3,3.1c-2.9,0-2.9,0-2.9-3c0-2.9,0-2.9,3-2.9C92,92.5,92,92.5,92,95.3z"/>
	<path class="st0" d="M97.4,95.3c0-2.8,0-2.8,3.2-2.8c2.8,0,2.8,0,2.8,3.2c0,2.8,0,2.8-3.2,2.8C97.4,98.4,97.4,98.4,97.4,95.3z"/>
	<path class="st0" d="M100.4,69.9c2.9,0,2.9,0,2.9,3c0,3.3,0.3,2.9-3.2,2.9c-2.7,0-2.7,0-2.7-3.2C97.4,69.9,97.4,69.9,100.4,69.9z"
		/>
	<path class="st0" d="M86.1,72.7c0-2.8,0-2.8,3.1-2.8c2.8,0,2.8,0,2.8,3.1c0,2.8,0,2.8-3.3,2.8C86.1,75.8,86.1,75.8,86.1,72.7z"/>
	<path class="st0" d="M100.4,58.6c2.9,0,2.9,0,2.9,3c0,2.9,0,2.9-3.2,2.9c-2.7,0-2.7,0-2.7-3C97.4,58.6,97.4,58.6,100.4,58.6z"/>
	<path class="st0" d="M92,61.6c0,2.8,0,2.8-3.1,2.8c-2.8,0-2.8,0-2.8-3.1c0-2.8,0-2.8,3.3-2.8C92,58.6,92,58.6,92,61.6z"/>
	<path class="st0" d="M97.4,50c0-2.8,0-2.8,3.2-2.8c2.8,0,2.8,0,2.8,3.2c0,2.8,0,2.8-3.2,2.8C97.4,53.1,97.4,53.1,97.4,50z"/>
	<path class="st0" d="M89.2,53.1c-3.3,0-3.1,0.3-3.1-3c0-2.9,0-2.9,3-2.9c2.9,0,2.9,0,2.9,3C92,53.1,92,53.1,89.2,53.1z"/>
</g>
</svg>
