<svg width="98" height="98" viewBox="0 0 98 98" fill="none" xmlns="http://www.w3.org/2000/svg">
<circle cx="49" cy="49" r="49" fill="#F29F8D"/>
<path d="M58.4745 8.04989C60.4578 8.69845 61.6974 10.0953 61.9453 12.1907C62.1932 14.4357 61.3503 16.2816 59.5158 17.5787C58.2266 18.4767 56.9375 19.3248 55.6484 20.1729C54.9046 20.6718 54.1609 20.7217 53.4172 20.1729C52.1281 19.2749 50.7398 18.4268 49.4506 17.5288C46.9716 15.7827 46.2774 12.8392 47.6161 10.245C48.2111 9.09756 49.2523 8.49889 50.3927 8C53.0701 8 55.7971 8 58.4745 8V8.04989ZM49.8473 12.939C49.8473 13.837 50.244 14.5853 50.9381 15.0842C51.9297 15.7827 52.9214 16.4312 53.913 17.1297C54.2601 17.3791 54.5576 17.3791 54.9542 17.1297C55.8963 16.4811 56.8879 15.8326 57.83 15.184C58.5241 14.6851 59.0199 13.9867 59.1191 13.0887C59.2183 12.0909 58.6729 11.1929 57.8796 10.9435C57.1358 10.7439 56.4913 11.0931 55.9955 12.0909C55.6484 12.7395 55.3013 13.2882 54.4584 13.2882C53.6155 13.2882 53.318 12.7395 52.971 12.1408C52.4256 11.143 51.8306 10.7439 51.1364 10.9435C50.2935 11.143 49.8473 11.8415 49.8473 12.939Z" fill="#8EA3BF"/>
<path d="M90.9504 89.2191C90.5538 89.9176 89.9092 90.1171 89.1159 90.1171H9.83453C8.44624 90.1171 8 89.6681 8 88.2214V67.2181C8 59.6848 12.9086 53.0496 20.098 50.9543C21.8333 50.4554 23.5191 49.7569 25.4032 49.7569C27.2873 49.7569 25.9982 49.5075 25.9982 49.1084V40.6771C25.9982 40.2281 25.7999 39.9787 25.4528 39.7791C24.1141 39.0308 23.5191 37.8335 23.2216 36.3867C22.7754 33.9421 22.1308 31.5474 21.6846 29.1029C20.7921 24.7126 22.9241 20.4721 26.9403 18.6262C29.3202 17.5286 31.7993 17.379 34.1296 18.4765C36.2121 19.4743 38.1953 19.4743 40.3274 18.9754C41.2694 18.726 42.2115 18.5264 43.2031 18.5264C46.0293 18.5264 48.31 20.2226 49.0538 22.9166C49.7479 25.461 48.6075 28.4543 46.3268 29.7514C45.583 30.1505 45.3847 30.6494 45.4343 31.3978C45.4343 34.7403 45.4343 38.0829 45.4343 41.3756C45.4343 43.6705 44.3435 45.4665 42.3602 46.5141C41.5173 46.9631 41.2694 47.462 41.319 48.3101C41.319 49.7569 41.319 49.7569 42.7569 50.156C43.6989 50.4055 44.5914 50.605 45.5335 50.9044C46.0293 51.054 46.4259 50.9044 46.7234 50.5551C50.1941 46.4144 56.8381 46.115 60.9038 48.5097C61.6971 48.9587 62.3913 49.5075 63.0358 50.1061C63.4821 50.5053 63.9779 50.3057 64.4241 50.1061C64.8704 49.9565 64.7216 49.5075 64.7712 49.1084C64.8208 48.5097 64.4241 48.5097 63.9779 48.4598C60.1105 47.9609 57.2348 45.217 56.5902 41.4255C56.491 40.8268 56.491 40.2281 56.491 39.6295V31.0485C56.491 25.4111 61.2013 20.6716 66.8041 20.6716C72.4068 20.6716 70.9194 20.4721 72.9026 20.8213C77.8112 21.7193 81.3811 26.1095 81.4307 31.0984V31.6971C81.3315 33.0441 81.629 34.2414 82.4223 35.4388C84.009 37.8335 84.2569 40.5275 83.3644 43.2714C83.2157 43.7204 83.2157 44.1195 83.5131 44.5685C85.4468 47.1627 86.0418 50.0563 85.1493 53.1993C85.0502 53.5984 85.0998 53.8977 85.3973 54.197C88.4713 56.9409 90.2563 60.3833 90.9008 64.4243C90.9008 64.5241 90.9504 64.574 91 64.6737C90.9504 72.7059 90.9504 80.9376 90.9504 89.1693V89.2191ZM10.8262 76.697V86.3256C10.8262 87.024 11.0245 87.3234 11.7682 87.2735C13.3053 87.2236 14.8919 87.2735 16.4289 87.2735C17.966 87.2735 17.6685 87.2735 17.6685 86.0761V70.0119C17.6685 68.5152 18.1147 67.8666 19.0568 67.8666C19.9988 67.8666 20.4946 68.5152 20.4946 70.0119V86.3256C20.4946 86.8743 20.4946 87.3233 21.2879 87.3233H39.0878C39.6332 87.3233 39.8315 87.0739 39.9307 86.575C41.0711 80.738 44.4427 76.9464 50.095 75.2502C50.2933 75.2003 50.69 75.2502 50.69 74.901C50.69 74.5518 50.3429 74.7014 50.095 74.6016C47.6159 73.8533 45.7814 72.3068 44.6906 69.962C44.4427 69.4132 44.0956 69.2635 43.5502 69.2635H38.6912C37.6004 69.2635 37.0054 68.7147 37.0054 67.8167C37.0054 66.9187 37.6499 66.4199 38.6912 66.4199C39.7324 66.4199 41.5669 66.37 43.0048 66.4199C43.6989 66.4199 43.8973 66.1704 43.8973 65.5218C43.8973 63.1272 43.8973 60.7824 43.8973 58.3877C43.8973 55.993 43.8973 56.2425 44.1452 55.1948C44.5418 53.5485 44.4922 53.5485 42.856 53.0995C42.2611 52.9498 41.9636 53.0995 41.7652 53.6483C41.1702 55.2447 40.5753 56.7913 39.8811 58.3378C39.3853 59.5352 38.6416 59.8345 37.4516 59.2857C36.2617 58.7369 35.0717 58.1383 33.8817 57.4897C33.2372 57.1405 32.6422 57.0906 31.948 57.4398C30.7085 58.1383 29.4194 58.7369 28.1798 59.3356C27.1386 59.8345 26.3949 59.5352 25.9486 58.4376C25.4528 57.2902 25.0066 56.0928 24.5108 54.8955C23.9819 53.5651 23.0398 53.0829 21.6846 53.4487C14.8919 55.2946 10.7766 60.7325 10.7766 67.8167C10.8262 70.7602 10.8262 73.7535 10.8262 76.697ZM71.5639 52.7503H66.1595C65.4654 52.7503 65.2174 52.9498 65.5645 53.6982C66.7545 56.3922 66.8041 59.1859 65.9116 61.9797C65.4654 63.3766 64.9695 64.7236 64.6225 66.1205C64.3745 67.2181 63.73 68.1161 62.6888 68.6649C62.1434 68.9642 61.9946 69.3134 61.9946 69.9121C62.0442 71.309 62.0442 72.7059 61.9946 74.1028C61.945 74.8012 62.2425 75.1005 62.8871 75.3001C68.3907 76.9963 71.7127 80.6881 72.8531 86.3755C73.0018 87.0739 73.2497 87.2735 73.9438 87.2735C75.6792 87.2236 77.4146 87.2236 79.1004 87.2735C79.9432 87.3234 80.2407 87.0739 80.2407 86.1759C80.1912 81.6859 80.2407 77.1959 80.1912 72.7059C80.1912 72.0074 80.3399 71.4088 80.6374 70.8101C81.5795 69.0141 81.3811 66.8689 79.9433 65.5218C78.3071 63.9753 78.7037 62.0296 78.555 60.1837C78.5054 59.5352 79.0508 58.9864 79.7945 58.9365C80.5382 58.8866 81.0836 59.1859 81.3315 59.9343C81.4803 60.3833 81.4803 60.8822 81.5299 61.3811C81.629 62.0296 81.4803 62.8278 82.0257 63.3766C83.0669 64.4742 83.7115 65.7214 84.009 67.1682C84.1081 67.6172 84.356 67.8666 84.8519 67.8167C85.6947 67.7669 86.5872 67.8167 87.4301 67.8167C88.273 67.8167 88.2234 67.6172 88.1738 67.0684C88.1243 66.4697 88.0747 65.921 88.0251 65.3223C87.4797 59.2358 82.8686 54.0973 76.9188 52.8999C74.9851 52.5507 73.0018 52.8999 71.5639 52.7503ZM28.8244 43.9698V48.5097C28.8244 49.3412 29.221 49.7569 30.0143 49.7569H36.7575C37.9474 49.7569 38.4928 49.1416 38.3937 47.911C38.3937 47.4121 38.1953 47.2126 37.6995 47.2625H35.8154C34.8238 47.2625 34.2288 46.6638 34.2784 45.7658C34.2784 44.9676 34.8734 44.4188 35.865 44.4188H39.2366C41.2198 44.4188 42.5585 43.0718 42.5585 41.0762C42.5585 37.8833 42.5585 34.6406 42.5585 31.4477C42.5585 28.2548 42.4098 30.5995 41.7652 30.5995C38.4432 30.7492 35.3196 30.1007 32.2455 28.8035C31.7001 28.5541 31.5514 28.8035 31.5514 29.3024V32.8446C31.5514 34.2913 31.1051 34.7403 29.6177 34.7403H27.6344C26.7419 34.7403 26.0478 35.339 26.0478 36.0374C26.0478 36.7359 26.5932 37.2348 27.3369 37.4343C28.4277 37.6838 28.7748 38.0829 28.7748 39.2303C28.8244 40.7769 28.8244 42.3734 28.8244 43.9698ZM68.0436 87.2735H68.9857C70.0765 87.2735 70.0765 87.2236 69.8286 86.1759C68.6882 81.2369 64.1762 77.595 59.1189 77.595C54.0615 77.595 55.8465 77.6449 54.2103 77.595C52.5741 77.5451 51.037 77.8444 49.5992 78.493C45.9797 79.9897 43.7485 82.6837 42.9056 86.5251C42.8065 87.024 42.9056 87.3233 43.451 87.3233H46.0293C46.5251 87.3233 46.7234 87.1238 46.6738 86.6249V84.6293C46.6738 83.7313 47.2688 83.1826 48.0621 83.1327C48.905 83.1327 49.4504 83.6814 49.5 84.6293C49.5 85.2779 49.5 85.9265 49.5 86.5251C49.5 87.1238 49.6487 87.2735 50.1941 87.2735H62.54C63.0358 87.2735 63.2838 87.0739 63.2342 86.5251C63.2342 85.8267 63.1846 85.1282 63.2342 84.4298C63.2838 83.5817 63.8787 83.0828 64.6225 83.0828C65.3662 83.0828 65.9612 83.6316 66.0108 84.4298C66.0603 84.7291 66.0108 85.0285 66.0108 85.2779C66.1595 87.5728 65.8124 87.2236 68.0436 87.2735ZM70.9194 49.7569C71.7622 49.7569 72.6051 49.7569 73.3984 49.7569C74.0926 49.7569 74.3405 49.5075 74.3405 48.809C74.2909 46.9132 74.3405 44.9676 74.3405 43.0718C74.3405 41.176 74.6876 41.625 75.6296 41.3756C76.6213 41.1261 77.1171 40.6272 77.0675 39.9288C77.0179 39.1805 76.3734 38.6816 75.3817 38.6317C72.4068 38.4321 70.2252 36.0374 70.1756 33.094V31.9465C70.1756 31.5474 70.0269 31.4477 69.6302 31.5973C66.6553 32.9443 63.4821 33.2437 60.2593 33.0441C59.466 33.0441 59.1189 33.2437 59.1685 34.0918C59.218 35.788 59.1685 37.4343 59.1685 39.1306C59.1685 43.2215 61.4492 45.4665 65.4654 45.4665H68.8369C69.6798 45.4665 70.1756 46.115 70.1756 46.8634C70.1756 47.6117 69.6302 48.2104 68.8369 48.2603H68.1428C67.6965 48.2603 67.4486 48.36 67.4486 48.9088C67.4486 49.4576 67.6965 49.6571 68.1924 49.6073C69.1344 49.7569 70.0269 49.7569 70.9194 49.7569ZM77.1667 46.9631V49.3079C77.1667 49.8068 77.3154 50.0563 77.8112 50.156C79.1995 50.4554 80.5382 50.9543 81.7778 51.6028C82.2736 51.8523 82.4223 51.7026 82.4719 51.1538C82.6702 49.1084 82.1744 47.2126 80.687 45.7159C79.1995 44.2192 79.6953 44.0696 80.1912 42.9221C81.1332 40.8268 81.1332 38.5818 79.7449 36.7359C78.6045 35.2891 78.3071 33.7924 78.4558 32.0962V31.1483C78.3071 27.1073 75.6792 24.114 71.7622 23.5153C70.0269 23.2659 68.2915 23.3157 66.6057 23.4155C62.9863 23.665 60.2593 25.9599 59.466 29.2525C59.3172 29.951 59.3668 30.2503 60.2097 30.3002C63.9283 30.4 67.4982 29.9011 70.721 27.8058C71.911 27.0075 73.0018 27.706 73.0514 29.2027V32.3457C73.0514 34.7403 73.8943 35.6383 76.2246 35.8878C77.9104 36.0374 79.3483 37.2847 79.7945 38.9809C80.2407 40.5275 79.7449 42.523 78.4062 43.3212C77.2658 43.9698 77.0675 44.8179 77.1667 45.9654C77.2162 46.2647 77.1667 46.6139 77.1667 46.9631ZM46.773 63.4265V66.0207C46.773 69.3134 48.7067 71.5085 51.9295 71.9575C53.4665 72.1571 53.7145 72.4065 53.8136 74.003C53.8136 74.6017 54.1111 74.8012 54.6565 74.8012C55.8465 74.8012 57.086 74.7513 58.276 74.8012C58.9701 74.8511 59.1685 74.5019 59.1685 73.8533C59.1189 72.2569 59.1685 70.6105 59.1685 68.9642C59.1685 67.3179 59.1685 67.0185 60.9534 66.3201C61.003 66.3201 61.0526 66.2702 61.1021 66.2702C61.4988 66.0706 61.8459 65.7214 61.8459 65.2724C61.8459 64.8234 61.3996 64.8234 61.1021 64.6737C59.5651 63.9254 58.5239 62.778 57.9785 61.1316C57.681 60.2835 57.7802 59.4354 57.7802 58.5374C57.7802 57.6394 57.6314 57.8888 57.1356 58.0884C56.0448 58.5873 54.8548 58.8866 53.6649 59.1859C51.6816 59.6349 49.6983 59.5352 47.7151 59.5352C45.7318 59.5352 46.7234 59.7347 46.773 60.4831C46.8226 61.431 46.773 62.4287 46.773 63.4265ZM28.7252 28.7537V27.0075C28.7252 25.012 29.5185 24.5131 31.3035 25.2115C31.5018 25.3113 31.7497 25.3612 31.948 25.461C34.5759 26.6084 37.3029 27.4565 40.1786 27.6062C41.4677 27.6062 42.7569 27.8058 44.046 27.5064C45.6326 27.1073 46.6243 25.3612 46.2276 23.7648C45.8309 22.0685 44.3435 21.0707 42.6577 21.42C42.0627 21.5197 41.4677 21.6195 40.8728 21.7692C38.1458 22.4177 35.5179 22.3679 32.8901 21.1206C29.5185 19.5741 25.4032 21.8191 24.4612 25.461C23.8662 27.706 24.7587 29.8013 25.1553 31.9465C25.1553 32.2459 25.4528 32.2958 25.7007 32.196C26.4444 31.8468 27.1882 31.8468 27.9815 31.8967C28.5269 31.8967 28.6756 31.6472 28.6756 31.1483C28.6756 30.3002 28.6756 29.5519 28.6756 28.7537H28.7252ZM60.6063 57.3899V59.3855C60.6559 60.4332 61.0526 61.2813 61.9946 61.8301C62.4409 62.1294 62.7879 62.0795 62.9863 61.4808C63.9283 58.9365 63.8292 56.442 62.4904 54.0474C60.5568 50.6549 56.6398 49.0585 52.6732 50.0563C48.7067 51.054 47.8638 52.7503 47.0705 55.6937C46.8722 56.3423 47.0705 56.6416 47.7646 56.6416C49.3513 56.6416 50.9379 56.6416 52.4749 56.3922C54.5078 56.0928 56.3919 55.2946 58.1768 54.2469C59.5155 53.4487 60.6063 54.0474 60.6063 55.6438V57.3899ZM88.1738 78.9919V71.6083C88.1738 70.9099 87.9259 70.6105 87.2318 70.6604C86.3393 70.7103 85.4468 70.6604 84.5544 70.6604C83.6619 70.6604 83.9098 70.6105 83.8106 70.9598C83.5627 71.6582 83.0669 72.2569 83.0669 73.0551V86.4254C83.0669 87.0739 83.3148 87.2735 83.9594 87.2735C85.0998 87.2236 86.1906 87.2236 87.3309 87.2735C88.0251 87.3234 88.2234 87.024 88.2234 86.3755C88.1243 83.881 88.1738 81.4364 88.1738 78.9919ZM32.9397 52.6006H27.4857C26.9898 52.6006 26.7915 52.7004 26.9898 53.2492C27.2873 53.9476 27.5848 54.6959 27.8327 55.4443C28.0311 55.9432 28.279 56.0429 28.7748 55.7935C29.7664 55.2946 30.8076 54.7957 31.7993 54.2968C32.543 53.8977 33.2867 53.8977 34.0305 54.2968C35.0221 54.7957 36.0633 55.2946 37.055 55.7935C37.5012 56.0429 37.7987 55.9432 37.997 55.4443C38.2449 54.7458 38.5424 54.0474 38.8399 53.3489C39.0878 52.7503 38.9391 52.6006 38.2945 52.6006C36.5096 52.6006 34.7246 52.6006 32.9397 52.6006Z" fill="#283959"/>
<path d="M38.6417 41.6251C37.6005 41.6251 36.6089 40.9765 35.9147 39.7792C35.4685 38.9809 35.6172 38.1827 36.2122 37.7337C36.9064 37.2348 37.6501 37.3845 38.2451 38.0829C38.493 38.3823 38.7409 38.6816 39.1871 38.7315C40.2779 38.8812 40.7738 39.4798 40.6746 40.3279C40.6746 41.2259 39.9804 41.6749 38.6417 41.6251Z" fill="#283959"/>
<path d="M34.2784 32.3958C35.0221 32.3958 35.5179 32.9445 35.5179 33.643C35.5179 34.3414 34.9725 34.8403 34.2784 34.8403C33.5842 34.8403 33.0388 34.2915 33.0388 33.5931C33.0388 32.8946 33.5842 32.3958 34.2784 32.3958Z" fill="#283959"/>
<path d="M39.9802 32.3958C40.724 32.3958 41.2198 32.9445 41.2198 33.643C41.2198 34.3414 40.6744 34.8403 40.0298 34.8403C39.3853 34.8403 38.7903 34.2915 38.7903 33.5931C38.7903 32.8946 39.2861 32.3958 39.9802 32.3958Z" fill="#283959"/>
<path d="M65.1182 43.8701C64.2257 43.8701 63.5811 43.3213 63.482 42.5231C63.3828 41.675 63.8786 41.0763 64.8207 40.9267C65.3661 40.8269 65.7131 40.6772 66.0106 40.2282C66.4569 39.6295 67.2502 39.4799 67.8452 39.8291C68.4897 40.2282 68.6881 40.9267 68.3906 41.7249C67.8947 42.9222 66.4569 43.8701 65.1182 43.8701Z" fill="#283959"/>
<path d="M62.292 37.4344C61.5979 37.4344 61.1021 36.9355 61.0525 36.2371C61.0525 35.4887 61.5483 34.9399 62.292 34.9399C63.0358 34.9399 63.5316 35.4887 63.5316 36.2371C63.482 36.9355 62.9862 37.4344 62.292 37.4344Z" fill="#283959"/>
<path d="M67.7957 34.9897C68.5394 34.9897 69.0352 35.5385 69.0352 36.237C69.0352 36.9354 68.4898 37.4343 67.8453 37.4343C67.2007 37.4343 66.6057 36.8855 66.6057 36.1871C66.6057 35.4886 67.1015 34.9897 67.7957 34.9897Z" fill="#283959"/>
<path d="M52.7723 70.2613C51.7806 70.2613 51.1361 69.7624 51.0369 68.9642C50.9377 68.1161 51.4336 67.5174 52.3756 67.3678C52.8714 67.268 53.2681 67.1183 53.5656 66.6693C54.0118 66.0208 54.8051 65.921 55.4001 66.2702C56.0447 66.6693 56.2926 67.4177 55.8959 68.166C55.3009 69.513 54.1606 70.1616 52.7723 70.2613Z" fill="#283959"/>
<path d="M51.0867 62.6283C51.0867 63.3767 50.5413 63.8756 49.8472 63.8756C49.153 63.8756 48.6572 63.3268 48.6572 62.6283C48.6572 61.9299 49.2026 61.3811 49.8968 61.3811C50.5413 61.3811 51.0867 61.9299 51.0867 62.6283Z" fill="#283959"/>
<path d="M56.5902 62.6286C56.5902 63.327 56.0448 63.8758 55.301 63.8259C54.6069 63.776 54.1111 63.2771 54.1111 62.5787C54.1111 61.8802 54.6565 61.3314 55.4002 61.3813C56.0944 61.3813 56.5902 61.98 56.5902 62.6286Z" fill="#283959"/>
</svg>
