<svg width="98" height="98" viewBox="0 0 98 98" fill="none" xmlns="http://www.w3.org/2000/svg">
<circle cx="49" cy="49" r="49" fill="#F29F8D"/>
<path d="M43.1103 48.6587C43.1103 47.2936 41.8523 46.668 40.7087 47.3505C38.4787 48.6587 36.3058 48.6587 34.1329 47.3505C33.9614 47.2368 33.7327 47.123 33.5611 47.0661C32.9893 46.8955 32.5319 47.0661 32.1316 47.4643C31.7313 47.8624 31.5026 48.4312 31.7885 48.8862C32.1888 49.5688 32.1316 50.1376 31.7885 50.8201C31.5026 51.5595 31.7885 52.2989 32.5319 52.6402C33.218 52.9815 33.9614 52.754 34.4188 52.0714C34.5332 51.8439 34.6476 51.6164 34.7619 51.4458C34.9335 51.1614 35.105 51.1614 35.3909 51.2182C35.6768 51.2751 35.8484 51.4458 35.8484 51.7302V52.4696C35.8484 53.5503 36.4202 54.2328 37.3351 54.2328C38.2499 54.2328 38.7646 53.6071 38.8789 52.5265C38.8789 52.0145 38.6502 51.3889 39.3936 51.1614C40.0797 50.9907 40.0797 51.7302 40.3656 52.0714C40.8231 52.6402 41.3949 52.9246 42.0811 52.6971C42.7672 52.4696 43.2247 51.9577 43.0531 51.2751C42.8816 50.3082 42.4813 49.3981 43.0531 48.6587H43.1103Z" fill="#283959"/>
<path d="M65.0677 52.5833C65.8683 52.1851 66.0398 51.3888 65.5823 50.3081C65.468 50.0238 65.3536 49.7394 65.5252 49.455C65.9826 48.7156 65.9826 48.033 65.3536 47.4074C64.6675 46.7817 63.9241 46.9523 63.2379 47.4074C62.2087 48.0899 61.0651 48.3174 59.8071 48.2605C58.6635 48.2605 57.6342 47.8055 56.6621 47.2367C56.0331 46.8386 55.4042 46.8954 54.8895 47.3505C54.4321 47.7486 54.1462 48.3743 54.4893 48.8862C54.8895 49.5687 54.8323 50.0806 54.4893 50.7063C54.4893 50.82 54.4893 51.0476 54.3749 51.1613C54.3749 51.8439 54.718 52.2989 55.2898 52.5833C55.9188 52.8677 56.4906 52.697 56.948 52.1851C57.1768 51.9576 57.2911 51.6732 57.4055 51.3888C57.577 51.1613 57.6914 50.8769 58.0345 50.9907C58.3204 51.1044 58.4919 51.2751 58.4919 51.6163C58.5491 52.0714 58.5491 52.5264 58.6063 52.9245C58.7778 53.664 59.4068 54.119 60.1502 54.0621C60.8935 54.0052 61.351 53.5502 61.5225 52.8108C61.5797 52.5264 61.5797 52.1851 61.5797 51.9007C61.5797 51.6163 61.5797 51.1613 62.0371 51.0476C62.4946 50.9338 62.6661 51.2182 62.8377 51.5595C63.5238 52.697 64.2672 53.0383 65.0677 52.5833Z" fill="#283959"/>
<path d="M52.4308 61.6269C51.573 60.3187 50.3151 59.693 48.7712 59.7499C47.9707 59.8068 47.3988 60.3756 47.2845 61.115C47.2845 61.8544 47.6847 62.48 48.4853 62.7076C48.714 62.7644 48.9999 62.8213 49.2286 62.8782C49.6289 62.992 50.0292 63.2195 50.0292 63.6745C50.0292 64.1864 49.6861 64.4708 49.2286 64.6414C48.9999 64.6983 48.714 64.7552 48.4853 64.8121C47.7419 64.9827 47.2273 65.6084 47.2273 66.2909C47.2273 67.0303 47.6847 67.5422 48.3709 67.7129C48.714 67.8266 49.1143 67.8266 49.4002 67.9972C50.0863 68.3385 50.1435 69.0779 49.4002 69.4761C49.1715 69.5898 48.8855 69.7036 48.5996 69.7605C47.5704 69.988 46.9986 70.6137 47.1129 71.4099C47.2273 72.2631 47.8563 72.7181 48.9427 72.7181C51.6302 72.775 54.0318 69.5898 52.4308 66.9166C52.1449 66.4615 52.202 66.1203 52.4308 65.6652C53.3457 64.2433 53.1741 62.8782 52.4308 61.6269Z" fill="#283959"/>
<path d="M50.5439 57.0199C51.2872 56.8493 51.6875 56.3374 51.6875 55.598C51.6875 54.8586 51.1729 54.2329 50.4295 54.176C49.3431 54.176 48.2566 54.176 47.1702 54.176C46.4269 54.176 45.9122 54.8017 45.9122 55.5411C45.9122 56.2805 46.3125 56.9062 47.0558 57.0199C47.5705 57.1337 48.1423 57.1337 48.7141 57.1906C49.2859 57.1906 49.9149 57.1906 50.5439 57.0199Z" fill="#283959"/>
<path d="M81.9934 52.5833C83.3085 50.3651 83.3657 48.1468 82.0505 45.9286C81.7646 45.4167 81.5931 44.9048 81.5931 44.2791C81.5931 40.5251 81.5359 36.7712 81.5931 33.0172C81.879 23.4048 77.4761 16.5225 69.4136 11.631C64.2101 8.44577 58.5492 6.68254 52.488 6.11376C52.3165 6.11376 52.0878 6.11376 51.9162 6H45.5691C43.5678 6.28439 41.6237 6.5119 39.6795 6.96693C33.0465 8.55952 27.0426 11.2897 22.1822 16.2381C18.008 20.4471 15.9495 25.5661 15.8923 31.4815V44.1653C15.8923 44.8479 15.7779 45.4167 15.3777 46.0423C14.1769 48.1468 14.1769 50.3082 15.3777 52.4127C15.6636 52.9246 15.8351 53.3796 15.8351 53.9484V70.7844C15.8351 72.8889 15.2633 74.7659 13.7766 76.3016C12.2899 77.8373 10.4029 78.463 8.23005 78.1217C7.31516 78.0079 6.51463 78.0648 6 78.9749V80.1124C7.02926 82.7288 8.45878 85.004 10.6316 86.881C14.234 90.0661 18.4082 90.6918 22.9827 89.668C23.2686 89.6111 23.4973 89.5542 23.7832 89.4405C24.1835 89.3267 24.4122 89.3836 24.5266 89.8386C24.641 90.2937 24.984 90.578 25.3271 90.8624H75.1317C72.387 90.0661 70.1569 88.9286 68.4987 87.9048C68.2128 88.0185 67.984 87.9616 67.7553 87.9616H28.758C27.5572 87.9616 27.5 87.8479 27.9003 86.7103C29.0439 83.4114 32.0745 81.1362 35.5625 81.0225C36.8777 80.9656 38.1928 81.0225 39.4508 81.0225C40.7088 81.0225 40.3085 81.1931 40.5372 81.705C41.6237 84.0939 43.5678 85.2315 46.141 85.2315H51.4016C53.8604 85.1746 55.633 84.037 56.7194 81.8757C57.0053 81.3069 57.3484 81.0225 57.9774 81.0225C59.121 81.0794 60.3218 81.0225 61.4654 81.0225H61.8085C61.9229 81.0225 62.0372 81.0225 62.1516 81.0794C61.5798 79.9987 61.1795 78.918 60.8364 77.9511H60.4362C60.379 78.0079 60.2646 78.0079 60.1503 78.0079H58.0346C57.6915 78.0079 57.4056 77.9511 57.3484 77.5529C57.2912 77.2116 57.2912 76.8135 57.6915 76.6429C58.2633 76.3585 58.8923 76.0172 59.4641 75.8466C59.5785 75.7328 59.75 75.6759 59.9215 75.6759C59.9787 75.619 60.0931 75.6191 60.2074 75.5622C59.9215 74.0265 59.8644 72.832 59.8644 72.2632C59.8072 72.3201 59.75 72.3201 59.6356 72.377C59.5213 72.4907 59.4069 72.5476 59.2354 72.5476C59.121 72.6614 58.9495 72.7183 58.7779 72.832C44.8258 79.6005 27.6144 70.7844 24.9269 55.541C24.5266 53.2659 24.4694 50.9339 24.4694 48.6019V43.7672C24.4694 43.0278 24.7553 42.8003 25.4415 42.8571C28.9867 43.1415 32.5319 43.0847 36.0771 42.8571C41.109 42.5159 46.0266 41.8333 50.7154 39.8995C52.8883 38.9894 54.9468 37.795 56.6051 36.0317C56.891 35.6905 57.1197 35.6905 57.4056 36.0317C60.8936 40.2976 65.6396 41.9471 70.9003 42.5159C73.0731 42.7434 72.73 42.5159 72.73 44.4497C72.73 47.3505 72.9016 50.2513 72.5585 53.1521C72.2154 56.2235 71.3577 59.1243 69.9282 61.8545C69.871 61.9683 69.8138 62.082 69.6995 62.1389C69.7376 62.1768 69.7566 62.2147 69.7566 62.2527C70.9003 62.4233 71.8152 62.7646 72.6157 63.1058C72.6729 63.1058 72.73 63.0489 72.7872 63.0489C72.7872 62.9352 72.7872 62.7646 72.9016 62.5939C73.9309 60.5463 74.617 58.3849 75.0745 56.1667C75.1888 55.6548 75.4175 55.4841 75.9322 55.4273C76.504 55.4273 77.0186 55.4272 77.5904 55.2566C78.2194 55.1429 78.391 55.3704 78.3338 55.9392V62.4802C78.3338 62.7077 78.3338 62.8783 78.2194 63.0489C78.2766 63.1058 78.3338 63.1058 78.3338 63.1627C78.391 63.1058 78.4481 63.1058 78.5053 63.1058C78.6197 62.9921 78.7912 62.9352 79.0199 62.9352H79.0771C79.8777 62.5939 80.621 62.3664 81.4215 62.1958C81.3644 62.082 81.3072 61.8545 81.3072 61.6839V53.5503C81.5931 53.2659 81.7646 52.9246 81.9934 52.5833ZM44.8258 78.0079C47.6848 78.4061 50.5439 78.4061 53.3457 77.9511C54.0319 77.8373 54.375 78.1217 54.375 78.8042V79.7712C54.2606 81.1931 53.2314 82.2738 51.8019 82.3307C50.8298 82.3876 49.8005 82.3307 48.8285 82.3307H46.0838C44.3112 82.2738 43.2247 81.25 43.1676 79.4868C43.1104 77.4392 43.0532 77.7804 44.8258 78.0079ZM19.9521 45.9286C20.1809 45.9286 20.4096 45.8148 20.6955 45.7579C21.5532 45.6442 21.7247 45.7579 21.7247 46.668V49.1706C21.7247 50.0238 21.7247 50.877 21.7247 51.7302C21.7247 52.4696 21.4388 52.6971 20.6955 52.6402C19.2088 52.5265 17.8364 51.332 17.6077 49.8532C17.4362 48.0331 18.3511 46.4974 19.9521 45.9286ZM39.1649 76.586C39.3364 76.6429 39.4508 76.6997 39.6223 76.7566C40.0798 76.8704 40.1941 77.2116 40.137 77.6667C40.137 78.1786 39.7367 78.1786 39.3364 78.1786H36.0771C31.0452 78.2923 27.4428 80.6812 25.3271 85.2315C25.0412 85.8571 24.6981 86.1984 24.0691 86.3691C22.0678 86.9947 20.0093 87.336 17.8936 87.1085C14.4056 86.7103 11.9468 84.7196 10.117 81.8188C9.8883 81.4775 10.0027 81.25 10.4029 81.1931C10.8032 81.1362 11.2035 81.0794 11.6037 80.9656C15.7779 79.828 17.8364 76.8704 18.637 72.832C19.0944 70.5 18.7513 68.1111 18.8085 65.7222V56.2804C18.8085 55.6548 18.9801 55.3135 19.6662 55.541C19.8378 55.541 20.0665 55.541 20.238 55.6548C21.3054 55.8064 21.9725 56.4321 22.2394 57.5317C24.8125 66.6892 30.4162 73.0026 39.1649 76.586ZM71.7008 39.7857C69.242 39.5582 66.8976 39.0463 64.6104 38.0225C62.0372 36.828 59.9215 35.0648 58.7207 32.4484C58.0918 31.1402 56.6622 31.0833 55.9761 32.2778C54.5465 34.7804 52.3737 36.2593 49.8005 37.3399C46.3697 38.7619 42.7673 39.3876 39.1649 39.7857C36.363 40.0701 33.5612 40.1839 30.7593 40.127C29.2154 40.127 27.6715 40.127 26.0705 40.127C24.984 40.127 24.8697 39.8995 25.1556 38.8757C26.5279 34.6667 29.5585 31.9934 33.3896 30.1164C36.8205 28.4669 40.4801 27.7844 44.254 27.5C49.2287 27.1019 54.2606 27.2725 59.121 28.4669C62.4947 29.2632 65.6396 30.5714 68.3271 32.9034C70.2141 34.5529 71.5864 36.5437 72.2726 38.9325C72.6157 39.672 72.4442 39.8426 71.7008 39.7857ZM26.4707 30.4008C28.7008 25.3955 32.5319 22.1534 37.6782 20.4471C42.0811 18.9683 46.6556 18.627 51.2872 18.9114C55.0612 19.1389 58.7779 19.8214 62.2088 21.4709C66.1543 23.3479 69.0705 26.3056 70.9003 30.287C71.0718 30.6283 71.2433 30.9127 71.2433 31.4815C70.0997 30.4577 69.0705 29.5476 67.8697 28.8082C64.1529 26.4762 60.0931 25.2817 55.8045 24.7698C50.0293 24.0873 44.3112 24.0873 38.5931 25.2817C34.133 26.1918 30.016 27.8981 26.6423 31.0833C26.5279 31.1971 26.4136 31.254 26.242 31.3677C26.1277 30.9696 26.3564 30.6852 26.4707 30.4008ZM71.4721 25.168C68.1556 20.6177 63.5811 18.0582 58.1489 16.8638C50.4867 15.1574 42.8245 15.2143 35.4481 18.1151C27.5572 21.2434 23.2114 27.2725 21.8963 35.5198C21.5532 37.5106 21.4388 39.5013 21.6676 41.5489C21.7819 42.6296 21.6676 42.7434 20.5811 42.7434C19.4947 42.7434 19.4375 43.1984 19.0944 42.7434C18.7513 42.3452 18.9801 41.6627 18.9801 41.1508V35.7474C18.9801 33.5291 18.8085 30.9127 19.2088 28.2963C20.0665 22.9497 22.9255 18.7976 27.2141 15.6693C32.4176 11.8585 38.3072 9.75397 44.7114 9.07143C53.0027 8.21825 60.7793 9.86772 67.984 14.0767C72.5013 16.75 75.9322 20.3902 77.6476 25.5093C78.2194 27.2725 78.5053 29.0357 78.5053 30.9127V42.0608C78.5053 42.7434 78.4481 43.0278 77.6476 42.8571C75.875 42.459 75.875 42.5159 75.875 40.6389C76.0465 35.0079 74.8457 29.7183 71.4721 25.1111V25.168ZM76.7899 52.6402C76.1037 52.6402 75.7606 52.5265 75.875 51.7302C75.9894 50.9339 75.875 50.0807 75.875 49.2275H75.9322V46.4974C75.9322 45.9855 76.1609 45.7579 76.6755 45.7579C78.4481 45.7579 79.9348 47.4074 79.9348 49.2275C79.9348 51.0476 78.5625 52.5265 76.7899 52.6402Z" fill="#283959"/>
<path d="M75.8178 92.0001C74.7313 92.0001 73.6449 91.7157 72.5013 91.1469C66.0398 87.9049 62.0372 83.2977 60.1502 77.1549C59.6928 75.676 59.464 74.1972 59.5212 72.7752C59.464 70.102 60.0358 67.8837 61.2938 65.8361C63.1236 62.8784 65.9255 61.6271 69.2991 62.3096C71.5292 62.7647 73.4733 63.7885 75.0744 65.4379C75.4747 65.8361 75.6462 65.9498 75.7034 66.0067C75.7606 65.9498 75.9893 65.8361 76.3896 65.4379C78.3909 63.4472 80.7353 62.3665 83.4228 62.1959C86.2819 62.0252 88.6263 63.2766 90.2273 65.893C91.9428 68.68 92.4574 71.8652 91.7712 75.4485C90.5704 81.7051 87.0824 86.4829 80.964 90.0662C80.6209 90.2938 80.2779 90.4075 79.9348 90.5781C79.5917 90.7488 79.2486 90.9194 79.0199 91.0901C78.0478 91.6588 76.9614 92.0001 75.8178 92.0001ZM67.6409 64.9829C66.0398 64.9829 64.7818 65.7792 63.7526 67.3718C62.7805 68.9075 62.3231 70.7276 62.3803 72.7752V72.889C62.3231 73.9697 62.4946 75.1641 62.8949 76.3586C64.5531 81.762 68.0983 85.7435 73.8164 88.6443C75.3031 89.3837 76.3896 89.3837 77.5332 88.6443C77.9334 88.3599 78.3337 88.1893 78.734 88.0186C79.0199 87.9049 79.3058 87.7342 79.5345 87.6205C84.8523 84.4922 87.9401 80.34 88.9694 74.9366C89.5412 72.0358 89.1409 69.5332 87.7685 67.3718C86.7393 65.6654 85.367 64.926 83.5944 65.0398C81.593 65.1535 79.9348 65.9498 78.3909 67.4287C77.7047 68.1112 76.7898 68.8506 75.6462 68.8506C74.5026 68.8506 73.5877 68.1112 72.9587 67.4287C71.7579 66.1774 70.3856 65.4379 68.6701 65.1535C68.3842 64.9829 67.984 64.9829 67.6409 64.9829Z" fill="#8EA3BF"/>
</svg>
