<?xml version="1.0" encoding="utf-8"?>
<!-- Generator: Adobe Illustrator 27.9.0, SVG Export Plug-In . SVG Version: 6.00 Build 0)  -->
<svg version="1.1" id="Camada_1" xmlns="http://www.w3.org/2000/svg" xmlns:xlink="http://www.w3.org/1999/xlink" x="0px" y="0px"
	 viewBox="0 0 220.3 220.3" style="enable-background:new 0 0 220.3 220.3;" xml:space="preserve">
<style type="text/css">
	.st0{fill:#8EA3BF;}
	.st1{fill:#283959;}
</style>
<g id="wJmw5h.tif">
	<g>
		<path class="st0" d="M128.3,29.7c4,1.3,6.5,4.1,7,8.3c0.5,4.5-1.2,8.2-4.9,10.8c-2.6,1.8-5.2,3.5-7.8,5.2c-1.5,1-3,1.1-4.5,0.1
			c-2.6-1.8-5.4-3.5-8-5.3c-5-3.5-6.4-9.4-3.7-14.6c1.2-2.3,3.3-3.5,5.6-4.5C117.4,29.7,122.9,29.7,128.3,29.7z M110.9,39.5
			c0,1.8,0.8,3.3,2.2,4.3c2,1.4,4,2.7,6,4.1c0.7,0.5,1.3,0.5,2.1,0c1.9-1.3,3.9-2.6,5.8-3.9c1.4-1,2.4-2.4,2.6-4.2
			c0.2-2-0.9-3.8-2.5-4.3c-1.5-0.4-2.8,0.3-3.8,2.3c-0.7,1.3-1.4,2.4-3.1,2.4c-1.6,0-2.3-1.1-3-2.3c-1.1-2-2.3-2.8-3.7-2.4
			C111.8,35.9,110.9,37.3,110.9,39.5z"/>
		<g>
			<path class="st1" d="M193.8,192.4c-0.8,1.4-2.1,1.8-3.7,1.8c-53.3,0-106.6,0-159.9,0c-2.8,0-3.7-0.9-3.7-3.8c0-14,0-28.1,0-42.1
				c0-15.1,9.9-28.4,24.4-32.6c3.5-1,6.9-2.4,10.7-2.4c0.9,0,1.2-0.5,1.2-1.3c0-5.6,0-11.3,0-16.9c0-0.9-0.4-1.4-1.1-1.8
				c-2.7-1.5-3.9-3.9-4.5-6.8c-0.9-4.9-2.2-9.7-3.1-14.6c-1.8-8.8,2.5-17.3,10.6-21c4.8-2.2,9.8-2.5,14.5-0.3c4.2,2,8.2,2,12.5,1
				c1.9-0.5,3.8-0.9,5.8-0.9c5.7,0,10.3,3.4,11.8,8.8c1.4,5.1-0.9,11.1-5.5,13.7c-1.5,0.8-1.9,1.8-1.8,3.3c0.1,6.7,0.1,13.4,0,20
				c-0.1,4.6-2.2,8.2-6.2,10.3c-1.7,0.9-2.2,1.9-2.1,3.6c0.1,2.9,0,2.9,2.9,3.7c1.9,0.5,3.7,0.9,5.6,1.5c1,0.3,1.8,0.1,2.4-0.7
				c7-8.3,20.4-8.9,28.6-4.1c1.6,0.9,3,2,4.3,3.2c0.9,0.8,1.9,0.4,2.8,0.1c0.9-0.3,0.6-1.2,0.7-2c0.1-1.2-0.7-1.2-1.6-1.3
				c-7.8-1-13.6-6.5-14.9-14.1c-0.2-1.2-0.2-2.4-0.2-3.6c0-5.7,0-11.5,0-17.2c0.1-11.3,9.5-20.8,20.8-20.8c4.1,0,8.3-0.4,12.3,0.3
				c9.9,1.8,17.1,10.6,17.2,20.6c0,0.4,0,0.8,0,1.2c-0.2,2.7,0.4,5.1,2,7.5c3.2,4.8,3.7,10.2,1.9,15.7c-0.3,0.9-0.3,1.7,0.3,2.6
				c3.9,5.2,5.1,11,3.3,17.3c-0.2,0.8-0.1,1.4,0.5,2c6.2,5.5,9.8,12.4,11.1,20.5c0,0.2,0.1,0.3,0.2,0.5
				C193.8,159.4,193.8,175.9,193.8,192.4z M32.2,167.3c0,6.4,0,12.9,0,19.3c0,1.4,0.4,2,1.9,1.9c3.1-0.1,6.3,0,9.4,0
				c2.5,0,2.5,0,2.5-2.4c0-10.7,0-21.5,0-32.2c0-3,0.9-4.3,2.8-4.3c2,0,2.9,1.3,2.9,4.3c0,10.9,0,21.8,0,32.7c0,1.1,0,2,1.6,2
				c12,0,23.9,0,35.9,0c1.1,0,1.5-0.5,1.7-1.5c2.3-11.7,9.1-19.3,20.5-22.7c0.4-0.1,1.2,0,1.2-0.7c0-0.5-0.7-0.4-1.2-0.6
				c-5-1.5-8.7-4.6-10.9-9.3c-0.5-1.1-1.2-1.4-2.3-1.4c-3.2,0-6.5,0-9.8,0c-2.2,0-3.4-1.1-3.4-2.9c0-1.8,1.3-2.8,3.4-2.8
				c2.9,0,5.8-0.1,8.7,0c1.4,0,1.8-0.5,1.8-1.8c-0.1-4.8,0-9.5,0-14.3c0-2.1,0-4.3,0.5-6.4c0.8-3.3,0.7-3.3-2.6-4.2
				c-1.2-0.3-1.8-0.1-2.2,1.1c-1.2,3.2-2.4,6.3-3.8,9.4c-1,2.4-2.5,3-4.9,1.9s-4.8-2.3-7.2-3.6c-1.3-0.7-2.5-0.8-3.9-0.1
				c-2.5,1.4-5.1,2.6-7.6,3.8c-2.1,1-3.6,0.4-4.5-1.8c-1-2.3-1.9-4.7-2.9-7.1c-1.6-4-1.6-4-5.7-2.9c-13.7,3.7-22,14.6-22,28.8
				C32.2,155.4,32.2,161.4,32.2,167.3z M154.7,119.3c-4.3,0-7.6,0-10.9,0c-1.4,0-1.9,0.4-1.2,1.9c2.4,5.4,2.5,11,0.7,16.6
				c-0.9,2.8-1.9,5.5-2.6,8.3c-0.5,2.2-1.8,4-3.9,5.1c-1.1,0.6-1.4,1.3-1.4,2.5c0.1,2.8,0.1,5.6,0,8.4c-0.1,1.4,0.5,2,1.8,2.4
				c11.1,3.4,17.8,10.8,20.1,22.2c0.3,1.4,0.8,1.8,2.2,1.8c3.5-0.1,7-0.1,10.4,0c1.7,0.1,2.3-0.4,2.3-2.2c-0.1-9,0-18-0.1-27
				c0-1.4,0.3-2.6,0.9-3.8c1.9-3.6,1.5-7.9-1.4-10.6c-3.3-3.1-2.5-7-2.8-10.7c-0.1-1.3,1-2.4,2.5-2.5s2.6,0.5,3.1,2
				c0.3,0.9,0.3,1.9,0.4,2.9c0.2,1.3-0.1,2.9,1,4c2.1,2.2,3.4,4.7,4,7.6c0.2,0.9,0.7,1.4,1.7,1.3c1.7-0.1,3.5,0,5.2,0
				c1.1,0,1.6-0.4,1.5-1.5c-0.1-1.2-0.2-2.3-0.3-3.5c-1.1-12.2-10.4-22.5-22.4-24.9C161.6,118.9,157.6,119.5,154.7,119.3z
				 M68.5,101.7c0,3,0,6,0,9.1c0,2.5,0,2.5,2.4,2.5c4.5,0,9.1,0,13.6,0c3.6,0,3.6,0,3.3-3.7c-0.1-1-0.4-1.4-1.4-1.3
				c-1.3,0-2.6,0-3.8,0c-2-0.1-3.2-1.2-3.1-3c0-1.6,1.2-2.7,3.2-2.7c2.3,0,4.5,0,6.8,0c4-0.1,6.7-2.7,6.7-6.7c0.1-6.4,0-12.9,0-19.3
				c0-1.2-0.3-1.7-1.6-1.7c-6.7,0.3-13-1-19.2-3.6c-1.1-0.5-1.4-0.1-1.4,1c0,2.4,0,4.8,0,7.1c0,2.9-0.9,3.8-3.9,3.8
				c-1.3,0-2.7,0-4,0c-1.8,0.1-3.2,1.2-3.2,2.6c0,1.7,1.1,2.4,2.6,2.8c2.2,0.5,2.9,1.3,2.9,3.6C68.5,95.3,68.5,98.5,68.5,101.7z
				 M147.6,188.5c0.6,0,1.3,0,1.9,0c2.2,0,2.2-0.1,1.7-2.2c-2.3-9.9-11.4-17.2-21.6-17.2c-3.3,0-6.6,0.1-9.9,0s-6.4,0.5-9.3,1.8
				c-7.3,3-11.8,8.4-13.5,16.1c-0.2,1,0,1.6,1.1,1.6c1.7,0,3.5,0,5.2,0c1,0,1.4-0.4,1.3-1.4c0-1.3,0-2.7,0-4c0.1-1.8,1.2-2.9,2.8-3
				c1.7,0,2.8,1.1,2.9,3c0.1,1.3,0,2.6,0,3.8c0,1,0.3,1.5,1.4,1.5c8.3,0,16.6,0,24.9,0c1,0,1.5-0.4,1.4-1.5c0-1.4-0.1-2.8,0-4.2
				c0.1-1.7,1.3-2.7,2.8-2.7s2.7,1.1,2.8,2.7c0.1,0.6,0,1.2,0,1.7C143.8,189.1,143.1,188.4,147.6,188.5z M153.4,113.3L153.4,113.3
				c1.7,0,3.4-0.1,5,0c1.4,0.1,1.9-0.5,1.9-1.9c-0.1-3.8,0-7.7,0-11.5c0-2.1,0.7-2.9,2.6-3.4c2-0.5,3-1.5,2.9-2.9
				c-0.1-1.5-1.4-2.5-3.4-2.6c-6-0.4-10.4-5.2-10.5-11.1c0-0.8,0-1.5,0-2.3s-0.3-1-1.1-0.7c-6,2.7-12.4,3.3-18.9,2.9
				c-1.6-0.1-2.3,0.4-2.2,2.1c0.1,3.4,0,6.7,0,10.1c0,8.2,4.6,12.7,12.7,12.7c2.3,0,4.5,0,6.8,0c1.7,0.1,2.7,1.3,2.7,2.8
				s-1.1,2.7-2.7,2.8c-0.5,0-0.9,0-1.4,0c-0.9,0-1.4,0.2-1.4,1.3c0,1.1,0.5,1.5,1.5,1.4C149.8,113.3,151.6,113.3,153.4,113.3z
				 M166,107.7L166,107.7c0,1.6,0,3.1,0,4.7c0,1,0.3,1.5,1.3,1.7c2.8,0.6,5.5,1.6,8,2.9c1,0.5,1.3,0.2,1.4-0.9
				c0.4-4.1-0.6-7.9-3.6-10.9c-1.8-1.8-2-3.3-1-5.6c1.9-4.2,1.9-8.7-0.9-12.4c-2.3-2.9-2.9-5.9-2.6-9.3c0-0.6,0-1.3,0-1.9
				c-0.3-8.1-5.6-14.1-13.5-15.3c-3.5-0.5-7-0.4-10.4-0.2c-7.3,0.5-12.8,5.1-14.4,11.7c-0.3,1.4-0.2,2,1.5,2.1
				c7.5,0.2,14.7-0.8,21.2-5c2.4-1.6,4.6-0.2,4.7,2.8c0,2.1,0,4.2,0,6.3c0,4.8,1.7,6.6,6.4,7.1c3.4,0.3,6.3,2.8,7.2,6.2
				c0.9,3.1-0.1,7.1-2.8,8.7c-2.3,1.3-2.7,3-2.5,5.3C166.1,106.3,166,107,166,107.7z M104.7,140.7c0,1.7,0,3.5,0,5.2
				c0.1,6.6,3.9,11,10.4,11.9c3.1,0.4,3.6,0.9,3.8,4.1c0.1,1.2,0.6,1.6,1.7,1.6c2.4,0,4.9-0.1,7.3,0c1.4,0.1,1.8-0.6,1.8-1.9
				c-0.1-3.2,0-6.5,0-9.8c0-3.9,0-3.9,3.6-5.3c0.1,0,0.2-0.1,0.3-0.1c0.8-0.4,1.5-1.1,1.5-2s-0.9-0.9-1.5-1.2
				c-3.1-1.5-5.2-3.8-6.3-7.1c-0.6-1.7-0.4-3.4-0.4-5.2c0-1.1-0.3-1.3-1.3-0.9c-2.2,1-4.6,1.6-7,2.2c-4,0.9-8,0.7-12,0.7
				c-1.4,0-2,0.4-1.9,1.9C104.8,136.7,104.7,138.7,104.7,140.7z M68.3,71.2c0-1.2,0-2.3,0-3.5c0-4,1.6-5,5.2-3.6
				c0.4,0.2,0.9,0.3,1.3,0.5c5.3,2.3,10.8,4,16.6,4.3c2.6,0.1,5.2,0.4,7.8-0.2c3.2-0.8,5.2-4.3,4.4-7.5c-0.8-3.4-3.8-5.4-7.2-4.7
				c-1.2,0.2-2.4,0.4-3.6,0.7c-5.5,1.3-10.8,1.2-16.1-1.3c-6.8-3.1-15.1,1.4-17,8.7c-1.2,4.5,0.6,8.7,1.4,13
				c0.1,0.6,0.6,0.7,1.1,0.5c1.5-0.7,3-0.7,4.6-0.6c1.1,0,1.4-0.5,1.4-1.5C68.3,74.3,68.3,72.8,68.3,71.2z M132.6,128.6L132.6,128.6
				c0,1.3,0,2.7,0,4c0.1,2.1,0.9,3.8,2.8,4.9c0.9,0.6,1.6,0.5,2-0.7c1.9-5.1,1.7-10.1-1-14.9c-3.9-6.8-11.8-10-19.8-8
				c-6,1.5-9.7,5.4-11.3,11.3c-0.4,1.3-0.1,1.9,1.4,1.9c3.2,0,6.4,0,9.5-0.5c4.1-0.6,7.9-2.2,11.5-4.3c2.7-1.6,4.9-0.4,4.9,2.8
				C132.6,126.3,132.6,127.4,132.6,128.6z M188.2,171.9c0-4.9,0-9.9,0-14.8c0-1.4-0.5-2-1.9-1.9c-1.8,0.1-3.6,0-5.4,0
				c-0.6,0-1.3-0.1-1.5,0.6c-0.5,1.4-1.5,2.6-1.5,4.2c0,8.9,0,17.9,0,26.8c0,1.3,0.5,1.7,1.8,1.7c2.3-0.1,4.5-0.1,6.8,0
				c1.4,0.1,1.8-0.5,1.8-1.8C188.1,181.7,188.2,176.8,188.2,171.9z M76.8,119c-3.7,0-7.3,0-11,0c-1,0-1.4,0.2-1,1.3
				c0.6,1.4,1.2,2.9,1.7,4.4c0.4,1,0.9,1.2,1.9,0.7c2-1,4.1-2,6.1-3c1.5-0.8,3-0.8,4.5,0c2,1,4.1,2,6.1,3c0.9,0.5,1.5,0.3,1.9-0.7
				c0.5-1.4,1.1-2.8,1.7-4.2c0.5-1.2,0.2-1.5-1.1-1.5C84,119,80.4,119,76.8,119z"/>
			<path class="st1" d="M88.3,97c-2.1-0.1-4.1-1.3-5.5-3.7c-0.9-1.6-0.6-3.2,0.6-4.1c1.4-1,2.9-0.7,4.1,0.7c0.5,0.6,1,1.2,1.9,1.3
				c2.2,0.3,3.2,1.5,3,3.2C92.3,96.2,91,97.1,88.3,97z"/>
			<path class="st1" d="M79.5,78.5c1.5,0,2.5,1.1,2.5,2.5s-1.1,2.4-2.5,2.4c-1.5,0-2.5-1.1-2.5-2.5C77.1,79.5,78.1,78.5,79.5,78.5z"
				/>
			<path class="st1" d="M91,78.5c1.5,0,2.5,1.1,2.5,2.5s-1.1,2.4-2.4,2.4c-1.5,0-2.5-1.1-2.5-2.5S89.6,78.5,91,78.5z"/>
			<path class="st1" d="M141.7,101.5c-1.8,0-3.1-1.1-3.3-2.7c-0.2-1.7,0.8-2.9,2.7-3.2c1.1-0.2,1.8-0.5,2.4-1.4
				c0.9-1.2,2.5-1.5,3.7-0.8c1.3,0.8,1.7,2.2,1.1,3.8C147.3,99.6,144.4,101.5,141.7,101.5z"/>
			<path class="st1" d="M136,88.6c-1.4,0-2.4-1-2.5-2.4c0-1.5,1-2.6,2.5-2.6s2.5,1.1,2.5,2.6C138.4,87.6,137.4,88.6,136,88.6z"/>
			<path class="st1" d="M147.1,83.7c1.5,0,2.5,1.1,2.5,2.5s-1.1,2.4-2.4,2.4c-1.5,0-2.5-1.1-2.5-2.5
				C144.7,84.7,145.7,83.7,147.1,83.7z"/>
			<path class="st1" d="M116.8,154.4c-2,0-3.3-1-3.5-2.6c-0.2-1.7,0.8-2.9,2.7-3.2c1-0.2,1.8-0.5,2.4-1.4c0.9-1.3,2.5-1.5,3.7-0.8
				c1.3,0.8,1.8,2.3,1,3.8C121.9,152.9,119.6,154.2,116.8,154.4z"/>
			<path class="st1" d="M113.4,139.1c0,1.5-1.1,2.5-2.5,2.5s-2.4-1.1-2.4-2.5c0-1.5,1.1-2.5,2.5-2.5
				C112.3,136.7,113.4,137.7,113.4,139.1z"/>
			<path class="st1" d="M124.5,139.1c0,1.4-1.1,2.5-2.6,2.4c-1.4-0.1-2.4-1.1-2.4-2.5s1.1-2.5,2.6-2.4
				C123.5,136.7,124.5,137.8,124.5,139.1z"/>
		</g>
	</g>
</g>
</svg>
