<?xml version="1.0" encoding="utf-8"?>
<!-- Generator: Adobe Illustrator 27.9.0, SVG Export Plug-In . SVG Version: 6.00 Build 0)  -->
<svg version="1.1" id="Camada_1" xmlns="http://www.w3.org/2000/svg" xmlns:xlink="http://www.w3.org/1999/xlink" x="0px" y="0px"
	 viewBox="0 0 856 549" style="enable-background:new 0 0 856 549;" xml:space="preserve">
<style type="text/css">
	.st0{fill:#F29F8D;}
	.st1{fill:#FFFFFF;}
	.st2{display:none;}
	.st3{display:inline;fill:#8EA3BF;}
	.st4{display:inline;}
	.st5{display:inline;fill:#69688C;}
	.st6{display:inline;fill:#283959;}
	.st7{display:inline;fill:#F2BC8D;}
	.st8{display:inline;fill:#F29F8D;}
</style>
<g id="Camada_1_00000047017802349298223150000018401895197219380646_">
	<path class="st0" d="M287.2,425.9c76.6-2.9,138-66.9,138-144.2v-9.4c0.1-79.1-64.2-139.5-143.6-139.6l-172.5-0.4l0.2,265.4H30.6
		l-0.5-261.1C32,76.2,82.7,28.7,143,30.7l9,0.3c30.2,1,57.1,14.1,76.3,34.6c9,9.6,16.2,21.1,21.3,33.4c0,0,31.7,0,31.8,0
		C264,44.3,213.5,2.9,153,0.9l-9-0.3C67.1-1.8,2.5,58.7,0,135.6L0.5,391v34.9h108.8l0.1,120.8h27l0.5-120.9h145.2
		C283.7,425.9,287.2,425.9,287.2,425.9z M136.5,158.8l145.4,0.3c64.2,0,116.3,49,116.3,113.2v9.4c-0.1,62.3-49.4,113.4-111,116.2
		l-150-0.2L136.5,158.8z"/>
	<g>
		<path class="st1" d="M208.2,528l-33.6-0.1l-8.1,18.6h-16.3l41.3-90.8l40.8,90.9h-16.2L208.2,528z M202.8,515.8l-11.4-26.5
			l-11.5,26.4L202.8,515.8z"/>
		<path class="st1" d="M310.3,546.8h-16.7l-23.8-29.4H259l-0.1,29.4h-14.8l0.2-86.9h12.5h15.5c12.5,0,19.7,4.7,23.5,8.7
			c5,5,7.6,12.1,7.6,20.1s-2.7,15-7.7,20c-2.3,2.3-5.9,5-11,6.7L310.3,546.8z M272.3,505.1c6.1,0,10.7-1.6,13.6-4.7
			c3.6-3.5,4.2-8.4,4.2-11.8c0-3.5-0.6-8.4-4.2-11.9c-2.9-3.1-7.5-4.6-13.6-4.6h-13.2l-0.1,33H272.3z"/>
		<path class="st1" d="M336.8,495.3l34.5,0.1v12.3l-34.5-0.1l-0.1,26.9l41.9,0.1v12.3l-42-0.1H322l0.2-86.8h14.6l42,0.1v12.2
			l-41.9-0.1L336.8,495.3z"/>
		<path class="st1" d="M410.9,491.1l-0.1,55.8H396l0.2-90.9l59.2,59.9l0.1-55.7h14.9l-0.2,90.8L410.9,491.1z"/>
		<path class="st1" d="M550.9,472.5h-26l-0.1,74.7h-14.9l0.1-74.7h-26v-12.2l66.9,0.1L550.9,472.5z"/>
		<path class="st1" d="M602.6,528.6l-33.6-0.1l-8.1,18.6h-16.3l41.3-90.8l40.8,90.9h-16.2L602.6,528.6z M597.3,516.5L585.9,490
			l-11.5,26.4L597.3,516.5z"/>
		<path class="st1" d="M693.1,547.4l-39.6-0.1h-14.6l0.2-86.9h14.8l-0.1,74.6l39.5,0.1L693.1,547.4z"/>
		<path class="st1" d="M758.2,547.5l-39.6-0.1H704l0.2-86.8H719l-0.1,74.6l39.5,0.1L758.2,547.5z"/>
		<path class="st1" d="M769.1,547.5l0.2-86.9h14.8l-0.2,86.8L769.1,547.5z"/>
		<path class="st1" d="M853.5,530.2c-2.7,8.4-11,15.1-21.3,16.9c-1.9,0.3-3.8,0.5-5.7,0.5c-3.8,0-7.6-0.6-11.2-1.9
			c-6-2.2-11.2-5.9-15.6-11.2l11.7-8.4c2.7,3.3,5.8,5.6,9.3,6.8c2.8,1.1,5.9,1.3,8.7,0.7c4.8-0.8,8.8-3.7,10-7.2
			c1.3-4-1.6-7.5-4.3-9.8c-4.2-3.6-11.1-9.8-11.6-10.3l-11.6-10.1c-3.6-3.2-6-6.7-7.2-10.4c-1.3-3.6-1.4-7.5-0.2-11
			c1.2-3.7,3.6-7,7-9.7c3.2-2.4,7.1-4.2,11.3-4.9c4.6-0.9,9.4-0.6,14,1c4.8,1.8,9.2,4.7,12.8,8.8l-11.6,8.5
			c-4.8-5.4-9.8-5.4-12.5-4.9c-3.3,0.6-6.1,2.6-6.9,5c-0.5,1.6-0.4,4.3,3.5,7.8l15.8,14c2.3,2.1,5.1,4.6,7.1,6.3
			c4.1,3.4,6.9,7.3,8.3,11.4C854.7,522,854.8,526.2,853.5,530.2z"/>
	</g>
</g>
<g id="Camada_2_00000075164346793113156100000012447972955952308901_" class="st2">
	<path class="st3" d="M287.2,425.9c76.6-2.9,138-66.9,138-144.2v-9.4c0.1-79.1-64.2-139.5-143.6-139.6l-172.5-0.4l0.2,265.4H30.6
		l-0.5-261.1C32,76.2,82.7,28.7,143,30.7l9,0.3c30.2,1,57.1,14.1,76.3,34.6c9,9.6,16.2,21.1,21.3,33.4c0,0,31.7,0,31.8,0
		C264,44.3,213.5,2.9,153,0.9l-9-0.3C67.1-1.8,2.5,58.7,0,135.6L0.5,391v34.9h108.8l0.1,120.8h27l0.5-120.9h145.2
		C283.7,425.9,287.2,425.9,287.2,425.9z M136.5,158.8l145.4,0.3c64.2,0,116.3,49,116.3,113.2v9.4c-0.1,62.3-49.4,113.4-111,116.2
		l-150-0.2L136.5,158.8z"/>
	<g class="st4">
		<path class="st1" d="M208.2,528l-33.6-0.1l-8.1,18.6h-16.3l41.3-90.8l40.8,90.9h-16.2L208.2,528z M202.8,515.8l-11.4-26.5
			l-11.5,26.4L202.8,515.8z"/>
		<path class="st1" d="M310.3,546.8h-16.7l-23.8-29.4H259l-0.1,29.4h-14.8l0.2-86.9h12.5h15.5c12.5,0,19.7,4.7,23.5,8.7
			c5,5,7.6,12.1,7.6,20.1s-2.7,15-7.7,20c-2.3,2.3-5.9,5-11,6.7L310.3,546.8z M272.3,505.1c6.1,0,10.7-1.6,13.6-4.7
			c3.6-3.5,4.2-8.4,4.2-11.8c0-3.5-0.6-8.4-4.2-11.9c-2.9-3.1-7.5-4.6-13.6-4.6h-13.2l-0.1,33H272.3z"/>
		<path class="st1" d="M336.8,495.3l34.5,0.1v12.3l-34.5-0.1l-0.1,26.9l41.9,0.1v12.3l-42-0.1H322l0.2-86.8h14.6l42,0.1v12.2
			l-41.9-0.1L336.8,495.3z"/>
		<path class="st1" d="M410.9,491.1l-0.1,55.8H396l0.2-90.9l59.2,59.9l0.1-55.7h14.9l-0.2,90.8L410.9,491.1z"/>
		<path class="st1" d="M550.9,472.5h-26l-0.1,74.7h-14.9l0.1-74.7h-26v-12.2l66.9,0.1L550.9,472.5z"/>
		<path class="st1" d="M602.6,528.6l-33.6-0.1l-8.1,18.6h-16.3l41.3-90.8l40.8,90.9h-16.2L602.6,528.6z M597.3,516.5L585.9,490
			l-11.5,26.4L597.3,516.5z"/>
		<path class="st1" d="M693.1,547.4l-39.6-0.1h-14.6l0.2-86.9h14.8l-0.1,74.6l39.5,0.1L693.1,547.4z"/>
		<path class="st1" d="M758.2,547.5l-39.6-0.1H704l0.2-86.8H719l-0.1,74.6l39.5,0.1L758.2,547.5z"/>
		<path class="st1" d="M769.1,547.5l0.2-86.9h14.8l-0.2,86.8L769.1,547.5z"/>
		<path class="st1" d="M853.5,530.2c-2.7,8.4-11,15.1-21.3,16.9c-1.9,0.3-3.8,0.5-5.7,0.5c-3.8,0-7.6-0.6-11.2-1.9
			c-6-2.2-11.2-5.9-15.6-11.2l11.7-8.4c2.7,3.3,5.8,5.6,9.3,6.8c2.8,1.1,5.9,1.3,8.7,0.7c4.8-0.8,8.8-3.7,10-7.2
			c1.3-4-1.6-7.5-4.3-9.8c-4.2-3.6-11.1-9.8-11.6-10.3l-11.6-10.1c-3.6-3.2-6-6.7-7.2-10.4c-1.3-3.6-1.4-7.5-0.2-11
			c1.2-3.7,3.6-7,7-9.7c3.2-2.4,7.1-4.2,11.3-4.9c4.6-0.9,9.4-0.6,14,1c4.8,1.8,9.2,4.7,12.8,8.8l-11.6,8.5
			c-4.8-5.4-9.8-5.4-12.5-4.9c-3.3,0.6-6.1,2.6-6.9,5c-0.5,1.6-0.4,4.3,3.5,7.8l15.8,14c2.3,2.1,5.1,4.6,7.1,6.3
			c4.1,3.4,6.9,7.3,8.3,11.4C854.7,522,854.8,526.2,853.5,530.2z"/>
	</g>
	<rect x="-112.7" y="-159.2" class="st5" width="215.8" height="53.2"/>
	<rect x="103.1" y="-159.2" class="st6" width="215.8" height="53.2"/>
	<rect x="319.2" y="-159.2" class="st3" width="215.8" height="53.2"/>
	<rect x="535.3" y="-159.2" class="st7" width="215.8" height="53.2"/>
	<rect x="751.5" y="-159.2" class="st8" width="215.8" height="53.2"/>
</g>
</svg>
