<?xml version="1.0" encoding="utf-8"?>
<!-- Generator: Adobe Illustrator 27.2.0, SVG Export Plug-In . SVG Version: 6.00 Build 0)  -->
<svg version="1.1" id="Camada_1" xmlns="http://www.w3.org/2000/svg" xmlns:xlink="http://www.w3.org/1999/xlink" x="0px" y="0px"
	 viewBox="0 0 200 200" style="enable-background:new 0 0 200 200;" xml:space="preserve">
<style type="text/css">
	.st0{fill:#F29F8D;}
</style>
<g>
	<path class="st0" d="M41.9,198.2c-5.5-4.5-8.4-10.5-9.6-17.4c-1.1-6.5-0.4-12.9,2.6-18.8c0.6-1.3,0.5-1.7-1-1.6
		c-1.4,0.1-2.9-0.1-4.4,0c-2.3,0.2-4-0.7-5.4-2.5c-9.7-11.5-10-28.3-0.7-40.1c1.8-2.2,3.7-3.4,6.7-3.3c10.6,0.2,21.2,0.1,31.9,0.1
		c0.2-0.8-0.5-1-0.8-1.4C53,104.8,49.2,94.6,48.6,83c-0.5-10.8,1.9-20.9,8.2-29.8c5.4-7.6,12.4-12.8,21.8-14.2
		c4.4-0.7,8.7-0.4,12.9,1c0.6,0.2,1.2,0.3,1.8,0.5c0.3-1-0.1-1.8-0.4-2.6c-3.2-7.9-9.1-12-17.6-12.6c-2.7-0.2-4.1-1.8-4-4.3
		c0.2-2.1,1.7-3.5,3.9-3.5c4.8-0.1,9.3,1.2,13.4,3.6c1.3,0.8,1.8,0.9,2.2-0.9C93,10.1,99.8,4.3,110.2,3.8c2-0.1,4-0.1,6.1,0
		c2.8,0.1,4.4,1.5,4.6,4.3c0.4,5.1,0.1,10.1-2,14.9c-2.8,6.5-8.2,9.7-14.9,10.9c-3.5,0.6-3.5,0.6-2.6,4c0.7,2.8,0.7,2.7,3.4,1.9
		c12.8-3.5,23.5,0.3,32,10.1c9,10.3,11.9,22.6,10.5,36.1c-1.1,10.8-5.2,20.1-13,27.7c-0.1,0.1-0.2,0.3-0.3,0.5
		c0.6,0.5,1.4,0.2,2,0.2c9.5,0,19,0,28.5,0c2.3,0,3.7,1,4.3,2.7c0.7,2.4-0.9,4.9-3.4,5.1c-1.5,0.1-3,0.1-4.6,0
		c-1.1-0.1-1.9,0.4-2.6,1.3c-5.8,7.5-5.8,20,0,27.5c0.7,0.9,1.6,1.3,2.8,1.3c6.3,0,12.6,0,19,0c3.1,0,5,2.8,3.8,5.4
		c-0.6,1.4-1.7,2.2-3.2,2.4c-0.7,0.1-1.4,0.1-2.1,0c-3.6-0.7-5.5,1.1-6.9,4.1c-4,8.4-3.5,16.5,1.5,24.3c0.7,1.2,1.7,1.8,3.1,1.7
		c0.9-0.1,1.9,0,2.8,0c2.7,0,4.1,0.8,4.8,2.6c0.7,1.9,0,3.5-2.2,5.1C135,198.2,88.5,198.2,41.9,198.2z M139.5,80.9
		c0-9.9-2.6-18.5-8.9-25.9c-7.7-9-19.5-11.1-29.1-4.8c-2.5,1.6-4.5,1.7-6.9,0c-3.7-2.6-8-3.8-12.5-3.6c-7.3,0.4-13.1,4-17.5,9.6
		c-4.8,6.1-7.2,13.1-7.8,20.8c-0.8,10.4,1.6,20,8.2,28.2c7.6,9.5,19.9,12.4,30.4,5.2c1.9-1.3,3.7-1.3,5.6,0c3.9,2.7,8.3,4.2,13,4
		c6.8-0.3,12.4-3.4,16.8-8.5C136.9,98.7,139.5,90.1,139.5,80.9z M104.9,190.5c19.1,0,38.2,0,57.3,0c2.4,0,2.4,0,1.5-2.1
		c-3.7-8.6-3.7-17.3,0-25.9c0.9-2.1,0.9-2.1-1.3-2.1c-22.1,0-44.2,0-66.4,0c-4.1,0-8.2,0.1-12.3,0c-1.6,0-2.3,0.4-2.2,2.1
		c0.1,1.6,0,3.2,0,4.7c0.1,2-0.6,3.5-2.5,4.3c-1.9,0.7-3.4,0.1-4.8-1.3c-2.1-2.1-4.2-4.2-6.3-6.3c-1.8-1.8-1.8-1.8-3.5-0.1
		c-2.1,2.1-4.3,4.3-6.4,6.4c-1.4,1.4-3,2-4.8,1.2c-1.8-0.7-2.4-2.3-2.4-4.1c0-1.8,0-3.5,0-5.3c0-0.6,0.1-1.1-0.5-1.5
		c-1.6-0.9-5.4,0.1-6.4,1.7c-5.4,8-5.4,18.4,0,26.4c0.9,1.4,2,1.9,3.6,1.9C66.6,190.4,85.8,190.5,104.9,190.5z M89.7,122.4
		c-19.2,0-38.3,0-57.5,0c-1.3,0-2.3,0.2-3.1,1.3c-5.8,7.5-5.8,20.1,0,27.5c0.6,0.7,1.1,1.3,2.2,1.3c6.1,0,12.1,0,18.2,0
		c1.1,0,1.4-0.5,1.4-1.5c0-2.7,0-5.4,0-8.2c0-1.1-0.4-1.5-1.5-1.5c-2,0-4,0.1-6.1,0c-2.5-0.1-4.1-2-3.8-4.4c0.2-2.2,1.9-3.4,4.7-3.4
		c27.3,0,54.6,0,81.9,0c0.4,0,0.9,0,1.3,0c1.9,0.3,3.3,1.8,3.3,3.8c0.1,2-1.3,3.7-3.3,4c-0.7,0.1-1.4,0.1-2.1,0.1
		c-13.9,0-27.8,0-41.7,0c-1.8,0-2.3,0.5-2.2,2.3c0.1,2.2,0.1,4.4,0,6.6c-0.1,1.7,0.4,2.3,2.2,2.3c21.2-0.1,42.5,0,63.7,0
		c1.5,0,2-0.1,1.2-1.8c-4-8.8-4-17.6-0.1-26.4c0.8-1.9,0.9-1.9-1.2-1.9C128.1,122.4,108.9,122.4,89.7,122.4z M73.2,158
		c0.2-0.1,0.3-0.2,0.5-0.4c0-4.9,0-9.9,0-14.8c0-0.9-0.3-1.5-1.3-1.4c-4.1,0-8.2,0-12.3,0c-0.7,0-1.3,0.2-1.3,1c0,5.1,0,10.2,0,15.3
		c0.2,0.1,0.3,0.2,0.5,0.3c1.2-1.3,2.4-2.7,3.7-4c2.2-2.2,4.3-2.2,6.5,0C70.7,155.3,71.9,156.7,73.2,158z M112.8,14
		c0.1-2.2,0.5-2.6-2.2-2.1c-0.4,0.1-0.9,0-1.3,0.1c-4,0.6-7.6,2-9.4,6.1c-1,2.3-1.3,4.7-1.6,7.2c-0.1,0.9,0.2,1.3,1.2,1.2
		C107.1,25.7,112.1,23.8,112.8,14z"/>
	<path class="st0" d="M127.9,79.2c-2.1,0-3.5-1.1-4.1-3.7c-1.1-4.3-3.3-8.1-6.9-10.8c-1.4-1-2.9-1.7-4.5-2.3c-2.5-0.9-3.6-3-2.8-5.2
		c0.7-2.1,2.9-3.1,5.3-2.4c9.5,2.9,15.4,11.5,17,19.9C132.2,77,130.3,79.1,127.9,79.2z"/>
	<path class="st0" d="M115.7,171.5c8.6,0,17.2,0,25.8,0c2.4,0,3.9,1,4.4,2.9c0.7,2.5-1,4.8-3.6,5c-0.9,0.1-1.8,0-2.7,0
		c-16.7,0-33.4,0-50.1,0c-2.7,0-4.4-1.3-4.6-3.5c-0.2-2.6,1.5-4.3,4.3-4.3c7,0,13.9,0,20.9,0C112.1,171.5,113.9,171.5,115.7,171.5z"
		/>
</g>
</svg>
