<?xml version="1.0" encoding="utf-8"?>
<!-- Generator: Adobe Illustrator 27.2.0, SVG Export Plug-In . SVG Version: 6.00 Build 0)  -->
<svg version="1.1" id="Camada_1" xmlns="http://www.w3.org/2000/svg" xmlns:xlink="http://www.w3.org/1999/xlink" x="0px" y="0px"
	 viewBox="0 0 216 216" style="enable-background:new 0 0 216 216;" xml:space="preserve">
<style type="text/css">
	.st0{fill:#F29F8D;stroke:#F29F8D;stroke-width:1.5;stroke-miterlimit:10;}
	.st1{fill:#F29F8D;}
</style>
<path class="st0" d="M43.5,214c-1.6-0.9-2.4-2.4-2.4-4.1c0-4-0.1-8-0.1-12c0-1.2,0.7-1.8,1.9-1.8c6.8,0.1,5.4-0.8,5.5,5.3
	c0.1,5.3,0,5.3,5.4,5.3c41.6,0,83.2,0,124.9,0c3.7,0,3.4,0.3,3.4-3.5c0-10.2,0-20.2,0-30.3c0-5.8-1.8-10.7-6.4-14.6
	c-2.7-2.1-5.7-3.4-9.2-3.8c-1.6-0.2-2.1,0.3-2.6,1.8c-2.4,8-7.7,13-15.8,15c-1.8,0.5-3.6,0.7-5.5,0.7c-9.5,0-19,0-28.5,0
	c-2.6,0-2.7-0.1-2.7-2.7c0-5.5-0.6-4.9,4.9-4.9c9.2,0,18.3,0.1,27.5,0c5.7-0.1,9.7-2.9,12.3-8c1-1.8,0.8-2.1-1.2-2.1
	c-6.8,0-13.8,0-20.6,0c-3.5,0-4.9-1.2-4.9-4.9c0-5.5,0-11.1,0-16.7c0-1.4-0.3-1.8-1.8-1.4c-8.1,2.6-16.3,2.6-24.3,0
	c-1.5-0.5-1.7,0.1-1.7,1.4c0,5.3,0,10.6,0,15.9c0,1.7-0.6,2.4-2.3,2.4c-5.9-0.1-5.3,0.7-5.3-5c0-5.5,0-11,0-16.5c0-1,0-2-1-2.7
	c-6.9-4.3-12.1-10.2-15.9-17.6c-1.2,2.9-3.6,3.2-6.2,3.2c-5.1-0.1-10.4-0.1-15.5,0c-3.4,0.1-6,2.6-6.6,6c-0.5,2.9,1.4,5.9,4.4,7
	c1,0.5,2.1,0.5,3.2,0.5c4.9,0,9.8,0.1,14.6,0c1.8,0,2.5,0.6,2.4,2.4c-0.1,6.1,0.7,5.1-5.1,5.2c-6.3,0.1-12.7-0.5-19,0.3
	c-6.9,0.9-13,6.7-14.4,13.3c-1.4,7.6,1.8,14.8,8.1,18.5c3.2,1.9,6.8,2.5,10.3,2.6c5.9,0.1,11.8,0.1,17.5,0c1.7,0,2.5,0.5,2.5,2.4
	c-0.2,5.8,0.9,5.2-5.1,5.2c-3.2,0-6.3,0-9.5,0c-2.5,0-2.7,0.5-1.7,2.7c2.9,6.7,8,10.3,15.2,10.7c3.6,0.3,7.2,0.3,10.9-0.2
	c8.4-1.2,14.6-8.9,14.5-17.5c-0.3-8.6-6.8-15.7-15.2-16.6c-3.5-0.5-7-0.3-10.5-0.3c-1.7,0-2.5-0.5-2.5-2.4c0.2-6-1-5.2,5.2-5.2
	c4.5,0,9-0.1,13.5,1.4c10.6,3.6,17.8,14.1,17,24.8c-0.9,11.9-9,21.5-20.5,23.3c-7.5,1.1-14.9,1.4-22.2-2
	c-7.1-3.4-11.5-9.2-13.6-16.7c-0.5-1.5-1-2.3-2.7-2.7c-10.1-2.3-18-11.2-19.1-20.9C25.5,142,32.2,132,41.5,128
	c1.7-0.8,1.7-1.2,1-2.8c-4.9-9.6,2-20.4,13.1-20.6c3.3-0.1,6.7-0.1,10,0c1.8,0,2.1-0.6,1.6-2.3c-2.8-9.2-6.1-18.2-8.3-27.5
	c-4.2-20.5,0.2-38.5,13.8-53.9c12.7-14.5,29.2-20,48.1-18.7c26.4,1.9,49.4,22.7,53.8,48.6c2.9,16.4-0.1,31.8-8,46.3
	c-2.7,5-5.5,10-8.3,15c-1.1,2.3-2.8,3.4-5.2,3.1c-2.3-0.3-3.7,0.6-5,2.4c-2.5,3.3-5.7,6-9.2,8.3c-1.2,0.9-1.9,1.7-1.9,3.3
	c0.1,5,0.1,10.1,0,15c0,1.7,0.7,2.3,2.4,2.3c7.8-0.1,15.6,0,23.3,0c5.9,0,11.5,1,16.5,4.6c7.2,5.2,10.7,12.4,10.7,21.3
	c0.1,12.1,0,24.2,0,36.1c0,2-0.5,4-2.1,5.3C139.7,214,91.7,214,43.5,214z M157.7,97.7c0.7-1,1.1-2.1,1.8-3.2
	c7.2-13.1,10.5-27.1,7.7-42c-3.1-16.5-12.2-29-27-36.8c-14.9-7.9-30.6-8.5-46.1-1.6c-20.7,9.2-32.2,32.2-28.3,55.5
	c1.1,6.9,3.8,13.5,5.8,20.2c0.5,1.5,0.9,2.9,1.4,4.3c-0.1-2.9-0.1-5.7-0.1-8.6c0-3.6,0-7.2,0-10.9c0-1-0.1-1.9-1.4-1.8
	c-1.9,0.1-2.1-1-2-2.5c0-0.9,0.1-1.7,0-2.5c-0.2-2.1,0.7-2.8,2.7-2.7c10.6,0.1,21.1,0,31.9,0c8.1,0,12.8-3.5,15-11.3
	c1.9-6.8,3.8-13.5,5.8-20.2c0.5-1.5,0.8-2.9,1.2-4.4c0.6-1.6,1.8-2.7,3.5-2.7c1.8,0,2.9,1,3.5,2.7c0.2,0.7,0.5,1.2,0.6,2
	c2.5,8.7,4.9,17.3,7.4,26c1.5,5.2,5,7.9,10.5,7.9c2.6,0,5.2,0,7.8,0c0.9,0,2.1-0.1,2,1.1c-0.2,2.1,1,4.4-0.8,6.3
	c-0.1,0.1-0.5,0.1-0.7,0.1c-2-0.2-2,1-2,2.5C157.9,82.9,158.5,90.4,157.7,97.7z M129.8,45c-0.1,0-0.3,0-0.5,0c-1,3.6-2,7.2-3.1,10.9
	c-3.1,11.1-10.9,17.1-22.5,17.1c-7,0-14,0-21,0c-1.7,0-2.4,0.6-2.3,2.3c0.1,1.8,0,3.7,0,5.5c0.1,5.3-0.3,10.6,0.7,15.8
	c2.9,17,18.4,29.3,35.7,28.6c16.5-0.6,31.1-13.2,33.4-29.6c1-7,0.2-14.3,0.5-21.3c0-1.2-0.8-1.7-1.7-1.8c-8.4-1.4-13-6.4-15.2-14.4
	C132.4,53.9,131,49.5,129.8,45z"/>
<path class="st1" d="M105.4,104.3c1.5-0.3,2.5,0.3,2.9,2.3c0.8,3.4,3.6,5.5,6.9,5.7c3.7,0.1,6.6-1.8,7.7-5.3
	c0.8-2.3,2.9-3.2,5.2-2.4c1.2,0.6,0.9,1.6,0.7,2.5c-0.8,5.2-5.2,9.7-10.5,10.7c-7.2,1.4-14.1-2.9-15.8-10.2
	C101.6,104.7,102.1,104.3,105.4,104.3z"/>
<path class="st1" d="M97.9,80.6c3.5,0,6.3,2.9,6.3,6.3c0,3.5-2.9,6.4-6.6,6.4c-3.4-0.1-6.4-3.1-6.3-6.6
	C91.6,83.2,94.4,80.5,97.9,80.6z"/>
<path class="st1" d="M133.1,80.6c3.6,0,6.4,2.8,6.4,6.4c0,3.4-2.9,6.3-6.4,6.3s-6.4-2.9-6.3-6.6C126.8,83.2,129.6,80.6,133.1,80.6z"
	/>
</svg>
